<svg width="55" height="53" viewBox="0 0 55 53" fill="none" xmlns="http://www.w3.org/2000/svg">
<g id="Group 1">
<g id="Vector">
<mask id="path-1-outside-1_155_7983" maskUnits="userSpaceOnUse" x="0" y="0" width="55" height="53" fill="black">
<rect fill="white" width="55" height="53"/>
<path d="M47.8968 3.29552H45.3311V8.87778H39.7723V11.4542H45.3311V17.0365H47.8968V11.4542H53.4556V8.87778H47.8968V3.29552Z"/>
</mask>
<path d="M49.6831 36.1934L48.9903 35.9061L49.6831 36.1934ZM37.9766 48.9831L37.6299 48.318L37.9766 48.9831ZM20.824 51.2365L20.6606 51.9685L20.824 51.2365ZM1.02303 25.337L1.77236 25.3688L1.02303 25.337ZM39.4461 5.57137C39.7958 5.79349 40.2593 5.69013 40.4814 5.34051C40.7035 4.99089 40.6001 4.5274 40.2505 4.30528L39.4461 5.57137ZM30.4775 16.6862C30.0971 16.5224 29.6559 16.698 29.4921 17.0785C29.3283 17.459 29.5039 17.9002 29.8844 18.0639L30.4775 16.6862ZM33.8183 20.0833L34.3931 19.6014L33.8183 20.0833ZM39.6413 14.9437L39.0898 15.4519L39.6413 14.9437ZM43.3036 23.9631C43.3758 24.371 43.7651 24.643 44.1729 24.5707C44.5808 24.4985 44.8528 24.1093 44.7806 23.7014L43.3036 23.9631ZM25.6219 46.4301L25.7688 47.1656L25.6219 46.4301ZM31.5711 43.5949L31.997 44.2122L31.5711 43.5949ZM38.86 40.0031L38.9179 40.7509L38.86 40.0031ZM39.413 32.5949L39.2281 31.868L39.413 32.5949ZM34.2421 35.7207L33.7669 35.1405L33.7669 35.1405L34.2421 35.7207ZM34.2562 35.7092L34.7314 36.2894L34.7314 36.2894L34.2562 35.7092ZM22.6682 38.1064L23.2422 38.5891L22.6682 38.1064ZM43.1931 23.907L43.4114 23.1895L43.1931 23.907ZM49.2855 35.3253C49.2676 35.7391 49.5885 36.0891 50.0023 36.107C50.4162 36.125 50.7662 35.804 50.7841 35.3902L49.2855 35.3253ZM16.0545 29.8614L16.7548 29.5931L16.0545 29.8614ZM11.4014 31.9225L12.1242 31.7225L11.4014 31.9225ZM2.14305 29.8614L2.88953 29.9339L2.14305 29.8614ZM17.477 17.2924L17.3361 16.5558C17.3201 16.5588 17.3042 16.5624 17.2885 16.5665L17.477 17.2924ZM26.1431 17.2924L25.9707 18.0223L26.1431 17.2924ZM0.764537 22.4782C0.607884 22.8616 0.791738 23.2994 1.17519 23.4561C1.55864 23.6128 1.99647 23.4289 2.15313 23.0455L0.764537 22.4782ZM15.8264 6.08438L15.9421 6.8254L15.8264 6.08438ZM49.7605 19.0629C51.4813 24.5939 51.2086 30.5568 48.9903 35.9061L50.3759 36.4807C52.7286 30.8072 53.0178 24.4833 51.1928 18.6173L49.7605 19.0629ZM48.9903 35.9061C46.772 41.2553 42.75 45.6491 37.6299 48.318L38.3233 49.6481C43.7565 46.816 48.0231 42.1543 50.3759 36.4807L48.9903 35.9061ZM37.6299 48.318C32.51 50.9868 26.6182 51.7608 20.9873 50.5045L20.6606 51.9685C26.637 53.3019 32.89 52.4803 38.3233 49.6481L37.6299 48.318ZM20.9873 50.5045C15.3563 49.2482 10.3446 46.0415 6.831 41.4458L5.63936 42.3568C9.36667 47.2321 14.6843 50.6351 20.6606 51.9685L20.9873 50.5045ZM6.831 41.4458C3.31738 36.85 1.52632 31.1585 1.77236 25.3688L0.273709 25.3051C0.0127896 31.445 1.91211 37.4816 5.63936 42.3568L6.831 41.4458ZM1.77236 25.3688C2.01839 19.5792 4.28578 14.0617 8.17639 9.78335L7.06663 8.77417C2.93919 13.313 0.534629 19.1652 0.273709 25.3051L1.77236 25.3688ZM8.17639 9.78335C12.0669 5.50508 17.3323 2.73893 23.0493 1.96894L22.8491 0.48236C16.7813 1.2996 11.1941 4.23532 7.06663 8.77417L8.17639 9.78335ZM23.0493 1.96894C28.7663 1.19895 34.571 2.47411 39.4461 5.57137L40.2505 4.30528C35.0774 1.01866 28.9169 -0.33488 22.8491 0.48236L23.0493 1.96894ZM29.8844 18.0639C31.1828 18.623 32.3333 19.4794 33.2436 20.5652L34.3931 19.6014C33.3325 18.3365 31.9916 17.338 30.4775 16.6862L29.8844 18.0639ZM33.2436 20.5652C34.154 21.6509 34.7989 22.9357 35.1266 24.317L36.5861 23.9707C36.2046 22.3627 35.4537 20.8663 34.3931 19.6014L33.2436 20.5652ZM30.9679 10.5763C34.0839 11.3869 36.9029 13.079 39.0898 15.4519L40.1929 14.4354C37.8113 11.8513 34.7406 10.0078 31.3456 9.12464L30.9679 10.5763ZM39.0898 15.4519C41.2767 17.825 42.7394 20.779 43.3036 23.9631L44.7806 23.7014C44.1665 20.2357 42.5743 17.0196 40.1929 14.4354L39.0898 15.4519ZM5.53867 41.8873C8.88495 44.6876 17.0882 48.8995 25.7688 47.1656L25.475 45.6947C17.3852 47.3106 9.63089 43.3559 6.50132 40.737L5.53867 41.8873ZM31.997 44.2122C33.2001 43.382 34.4693 42.545 35.6879 41.8969C36.9212 41.241 38.0282 40.8197 38.9179 40.7509L38.8022 39.2554C37.5968 39.3486 36.2671 39.8899 34.9835 40.5726C33.6852 41.2631 32.3576 42.1409 31.1451 42.9776L31.997 44.2122ZM38.9179 40.7509C39.8123 40.6817 40.8106 40.6883 41.6279 41.145C42.3843 41.5677 43.1481 42.4743 43.359 44.5927L44.8516 44.4441C44.6065 41.9822 43.6571 40.5607 42.3597 39.8356C41.1231 39.1446 39.7269 39.1838 38.8022 39.2554L38.9179 40.7509ZM25.7688 47.1656C28.0998 46.7 30.149 45.4874 31.997 44.2122L31.1451 42.9776C29.3369 44.2253 27.4951 45.2911 25.475 45.6947L25.7688 47.1656ZM48.2673 39.8232C48.0289 38.2838 47.4538 35.9254 46.1112 34.1286C45.4313 33.2188 44.5384 32.4313 43.3756 31.9859C42.2083 31.5387 40.8311 31.4602 39.2281 31.868L39.5979 33.3217C40.9485 32.9782 42.004 33.0668 42.839 33.3867C43.6786 33.7083 44.3576 34.2878 44.9096 35.0265C46.0305 36.5267 46.5586 38.5912 46.785 40.0529L48.2673 39.8232ZM33.7669 35.1405C31.8536 36.7077 29.5897 38.4396 27.3935 39.9158C25.1827 41.402 23.0937 42.5925 21.5178 43.12L21.9939 44.5424C23.7713 43.9474 25.9994 42.6603 28.2304 41.1607C30.476 39.6512 32.7785 37.8891 34.7174 36.3009L33.7669 35.1405ZM21.5178 43.12C19.751 43.7114 17.1223 44.0998 14.3904 43.8118C11.6621 43.5241 8.89275 42.5695 6.76575 40.5403L5.73035 41.6257C8.16447 43.9478 11.2816 44.9923 14.2332 45.3035C17.1813 45.6143 20.0259 45.2012 21.9939 44.5424L21.5178 43.12ZM39.2281 31.868C37.0735 32.4161 35.3255 33.8638 33.7809 35.129L34.7314 36.2894C36.3292 34.9807 37.8223 33.7734 39.5979 33.3217L39.2281 31.868ZM33.7809 35.129L33.7669 35.1405L34.7174 36.3009L34.7314 36.2894L33.7809 35.129ZM4.36134 40.4801C6.05532 42.1002 8.92944 43.8038 12.3265 44.0077C15.7696 44.2143 19.6399 42.8729 23.2422 38.5891L22.0941 37.6237C18.7635 41.5845 15.336 42.6856 12.4163 42.5104C9.45056 42.3323 6.8969 40.8295 5.3981 39.396L4.36134 40.4801ZM23.2422 38.5891C27.6115 33.3932 30.7967 29.3536 33.8338 26.8632C35.336 25.6314 36.7583 24.8183 38.2197 24.4358C39.6705 24.0562 41.2104 24.0876 42.9748 24.6245L43.4114 23.1895C41.4129 22.5813 39.589 22.527 37.8399 22.9847C36.1014 23.4397 34.4877 24.3872 32.8827 25.7033C29.7053 28.3087 26.391 32.5139 22.0941 37.6237L23.2422 38.5891ZM42.9748 24.6245C45.7426 25.4668 47.3394 27.2762 48.2435 29.3076C49.1582 31.3626 49.3584 33.6419 49.2855 35.3253L50.7841 35.3902C50.8632 33.562 50.6529 31.032 49.6139 28.6976C48.5644 26.3396 46.6642 24.1793 43.4114 23.1895L42.9748 24.6245ZM19.839 16.3584C19.0297 16.7408 18.2465 17.5115 17.5656 18.4433C16.8734 19.3905 16.2392 20.5695 15.7522 21.8549C14.7869 24.4028 14.3502 27.5086 15.3541 30.1296L16.7548 29.5931C15.9343 27.4506 16.2577 24.7546 17.1549 22.3863C17.5992 21.2137 18.1718 20.156 18.7766 19.3283C19.3928 18.4852 19.9969 17.9428 20.4799 17.7146L19.839 16.3584ZM15.3541 30.1296C16.3565 32.747 18.3605 34.3062 20.3212 35.1429C22.2484 35.9654 24.2443 36.1361 25.3593 35.8561L24.9941 34.4013C24.2847 34.5794 22.6316 34.4981 20.91 33.7633C19.2217 33.0428 17.5768 31.7393 16.7548 29.5931L15.3541 30.1296ZM16.409 16.8208C14.7184 17.6479 12.8272 19.7711 11.5922 22.4667C10.3445 25.1899 9.70898 28.6175 10.6785 32.1225L12.1242 31.7225C11.2693 28.6319 11.82 25.5706 12.9559 23.0914C14.1044 20.5846 15.7941 18.7915 17.0682 18.1682L16.409 16.8208ZM10.6785 32.1225C12.6161 39.127 18.0176 40.6881 20.8436 40.6881V39.1881C18.5004 39.1881 13.8356 37.9093 12.1242 31.7225L10.6785 32.1225ZM15.0804 42.2773C12.7021 40.8075 9.69976 38.0293 8.36269 34.2813C7.0467 30.5924 7.29755 25.8379 11.6302 20.2439L10.4443 19.3254C5.8371 25.2739 5.4418 30.5579 6.9499 34.7853C8.43693 38.9536 11.7289 41.9694 14.2918 43.5533L15.0804 42.2773ZM8.95478 41.9629C7.93849 41.6845 6.24048 40.4684 4.87148 38.3564C3.52491 36.279 2.55163 33.4119 2.88953 29.9339L1.39656 29.7888C1.02248 33.6393 2.10171 36.8411 3.61279 39.1723C5.10144 41.4689 7.06623 43.0009 8.55856 43.4096L8.95478 41.9629ZM2.88953 29.9339C3.22128 26.5192 5.71663 23.834 8.83708 21.8195C11.9396 19.8166 15.509 18.5784 17.6655 18.0183L17.2885 16.5665C15.0359 17.1515 11.3033 18.4419 8.02351 20.5593C4.76169 22.6651 1.79459 25.6918 1.39656 29.7888L2.88953 29.9339ZM17.6179 18.0291C19.1733 17.7316 23.0198 17.3251 25.9707 18.0223L26.3156 16.5625C23.0633 15.794 18.9735 16.2426 17.3361 16.5558L17.6179 18.0291ZM25.9707 18.0223C27.0509 18.2776 28.2864 18.2911 29.4373 18.0599C30.5824 17.8299 31.7121 17.3432 32.5185 16.5334C33.3507 15.6976 33.7987 14.5529 33.5874 13.1547C33.3824 11.7973 32.5674 10.264 31.0357 8.54829L29.9167 9.54727C31.3497 11.1523 31.9601 12.4244 32.1043 13.3787C32.2423 14.2922 31.9632 14.9652 31.4556 15.475C30.9222 16.0106 30.0992 16.397 29.1419 16.5893C28.1905 16.7804 27.1738 16.7653 26.3156 16.5625L25.9707 18.0223ZM31.0357 8.54829C27.8069 4.93185 22.048 4.34514 17.0152 5.15842C14.4676 5.5701 12.026 6.35042 10.0605 7.34848C8.12614 8.33072 6.53093 9.586 5.85256 11.0166L7.2079 11.6593C7.6698 10.6852 8.8968 9.6217 10.7396 8.68593C12.5513 7.76599 14.8419 7.02908 17.2545 6.63921C22.1422 5.84937 27.216 6.52225 29.9167 9.54727L31.0357 8.54829ZM2.15313 23.0455C2.41088 22.4145 3.01302 21.501 3.94092 20.4684C4.85904 19.4466 6.06286 18.3452 7.48201 17.3319C10.3285 15.2994 13.9793 13.6641 17.8788 13.6641V12.1641C13.5683 12.1641 9.61725 13.9641 6.61036 16.1111C5.1028 17.1876 3.81702 18.362 2.82518 19.4658C1.84311 20.5587 1.11493 21.6205 0.764537 22.4782L2.15313 23.0455ZM17.8788 13.6641C22.9925 13.6641 25.8646 13.3748 27.4656 12.7702C28.2961 12.4566 28.8723 12.0269 29.2105 11.4315C29.5366 10.8573 29.5756 10.2363 29.5756 9.70782H28.0756C28.0756 10.1895 28.029 10.4744 27.9062 10.6908C27.7953 10.886 27.5591 11.1316 26.9357 11.367C25.629 11.8604 23.0276 12.1641 17.8788 12.1641V13.6641ZM29.5756 9.70782C29.5756 7.74508 28.1501 6.29321 25.8218 5.54065C23.5018 4.79072 20.119 4.6547 15.7106 5.34337L15.9421 6.8254C20.2409 6.15385 23.3578 6.32058 25.3605 6.96794C27.3551 7.61266 28.0756 8.65262 28.0756 9.70782H29.5756ZM15.7106 5.34337C8.28276 6.50373 4.01749 12.7254 2.82812 15.3531L4.19465 15.9716C5.2858 13.561 9.23057 7.87386 15.9421 6.8254L15.7106 5.34337ZM45.3311 3.29552V1.79552C44.5027 1.79552 43.8311 2.4671 43.8311 3.29552H45.3311ZM47.8968 3.29552H49.3968C49.3968 2.4671 48.7252 1.79552 47.8968 1.79552V3.29552ZM45.3311 8.87778V10.3778C46.1596 10.3778 46.8311 9.70621 46.8311 8.87778H45.3311ZM39.7723 8.87778V7.37778C38.9438 7.37778 38.2723 8.04936 38.2723 8.87778H39.7723ZM39.7723 11.4542H38.2723C38.2723 12.2826 38.9438 12.9542 39.7723 12.9542V11.4542ZM45.3311 11.4542H46.8311C46.8311 10.6258 46.1596 9.95421 45.3311 9.95421V11.4542ZM45.3311 17.0365H43.8311C43.8311 17.8649 44.5027 18.5365 45.3311 18.5365V17.0365ZM47.8968 17.0365V18.5365C48.7252 18.5365 49.3968 17.8649 49.3968 17.0365H47.8968ZM47.8968 11.4542V9.95421C47.0683 9.95421 46.3968 10.6258 46.3968 11.4542H47.8968ZM53.4556 11.4542V12.9542C54.284 12.9542 54.9556 12.2826 54.9556 11.4542H53.4556ZM53.4556 8.87778H54.9556C54.9556 8.04936 54.284 7.37778 53.4556 7.37778V8.87778ZM47.8968 8.87778H46.3968C46.3968 9.70621 47.0683 10.3778 47.8968 10.3778V8.87778ZM45.3311 4.79552H47.8968V1.79552H45.3311V4.79552ZM46.8311 8.87778V3.29552H43.8311V8.87778H46.8311ZM39.7723 10.3778H45.3311V7.37778H39.7723V10.3778ZM41.2723 11.4542V8.87778H38.2723V11.4542H41.2723ZM45.3311 9.95421H39.7723V12.9542H45.3311V9.95421ZM46.8311 17.0365V11.4542H43.8311V17.0365H46.8311ZM47.8968 15.5365H45.3311V18.5365H47.8968V15.5365ZM46.3968 11.4542V17.0365H49.3968V11.4542H46.3968ZM53.4556 9.95421H47.8968V12.9542H53.4556V9.95421ZM51.9556 8.87778V11.4542H54.9556V8.87778H51.9556ZM47.8968 10.3778H53.4556V7.37778H47.8968V10.3778ZM46.3968 3.29552V8.87778H49.3968V3.29552H46.3968Z" fill="#1166C8" mask="url(#path-1-outside-1_155_7983)"/>
</g>
</g>
</svg>
