<svg width="94" height="43" viewBox="0 0 94 43" fill="none" xmlns="http://www.w3.org/2000/svg">
<path d="M60.1325 19.9313L59.3028 17.2841H55.4786L54.6488 19.9313H52.3105L56.0895 9.01724H58.7673L62.5538 19.9313H60.1325ZM57.3643 11.1048L55.9689 15.5747H58.8125L57.4171 11.1048H57.3643Z" fill="#1166C8"/>
<path d="M66.2046 11.6947C66.7829 11.6947 67.2882 11.8334 67.7207 12.1107C68.1582 12.388 68.4825 12.7637 68.6937 13.2376H68.739V11.8233H70.9114V22.5785H68.7088V18.5472H68.6636C68.4725 19.001 68.1532 19.3665 67.7056 19.6439C67.2581 19.9212 66.7452 20.0599 66.1669 20.0599C65.1561 20.0599 64.3566 19.6842 63.7682 18.9329C63.1799 18.1816 62.8857 17.158 62.8857 15.8622C62.8857 14.5764 63.1824 13.5603 63.7758 12.8141C64.3742 12.0678 65.1838 11.6947 66.2046 11.6947ZM65.6162 17.6396C65.933 18.0682 66.3655 18.2825 66.9136 18.2825C67.4617 18.2825 67.8992 18.0656 68.2261 17.632C68.5529 17.1984 68.7164 16.6135 68.7164 15.8773C68.7164 15.1411 68.5504 14.5562 68.2185 14.1226C67.8917 13.6839 67.4567 13.4645 66.9136 13.4645C66.3655 13.4645 65.933 13.6814 65.6162 14.115C65.2994 14.5436 65.141 15.131 65.141 15.8773C65.141 16.6235 65.2994 17.211 65.6162 17.6396Z" fill="#1166C8"/>
<path d="M79.8195 11.8233V19.9313H77.6924V18.4715H77.6472C77.2248 19.5455 76.4177 20.0825 75.2259 20.0825C74.3409 20.0825 73.6343 19.8128 73.1063 19.2733C72.5783 18.7287 72.3143 17.9875 72.3143 17.0496V11.8233H74.5169V16.5882C74.5169 17.1278 74.6451 17.5387 74.9016 17.8211C75.163 18.1035 75.5377 18.2446 76.0255 18.2446C76.5132 18.2446 76.9004 18.0833 77.1871 17.7606C77.4737 17.4379 77.617 17.0068 77.617 16.4672V11.8233H79.8195Z" fill="#1166C8"/>
<path d="M84.3755 18.464C84.8632 18.464 85.2756 18.3228 85.6125 18.0404C85.9544 17.753 86.1254 17.3925 86.1254 16.9589V16.3689L84.4207 16.4748C84.0084 16.505 83.689 16.6084 83.4628 16.7849C83.2415 16.9614 83.1309 17.1933 83.1309 17.4807C83.1309 17.7833 83.244 18.0228 83.4703 18.1993C83.6966 18.3757 83.9983 18.464 84.3755 18.464ZM83.6513 20.0599C82.8719 20.0599 82.2257 19.8304 81.7128 19.3716C81.1999 18.9127 80.9434 18.3228 80.9434 17.6017C80.9434 16.8656 81.215 16.2882 81.7581 15.8697C82.3011 15.4512 83.0781 15.2117 84.0888 15.1512L86.1254 15.0302V14.4932C86.1254 14.12 86.0022 13.8276 85.7558 13.6158C85.5144 13.404 85.1851 13.2981 84.7677 13.2981C84.3654 13.2981 84.036 13.3889 83.7796 13.5704C83.5281 13.752 83.3748 13.9965 83.3194 14.3041H81.3055C81.3457 13.5074 81.6851 12.867 82.3238 12.383C82.9624 11.8939 83.8097 11.6493 84.8657 11.6493C85.9016 11.6493 86.7314 11.8964 87.3549 12.3905C87.9784 12.8847 88.2902 13.5402 88.2902 14.357V19.9313H86.1631V18.6909H86.1179C85.8966 19.1144 85.5597 19.4497 85.1071 19.6968C84.6545 19.9388 84.1693 20.0599 83.6513 20.0599Z" fill="#1166C8"/>
<path d="M52.3105 30.573H54.5055C54.5558 31.0168 54.7896 31.3773 55.207 31.6546C55.6294 31.9269 56.1449 32.063 56.7533 32.063C57.3568 32.063 57.847 31.9345 58.2242 31.6773C58.6064 31.4151 58.7974 31.0823 58.7974 30.6789C58.7974 30.326 58.6566 30.0411 58.375 29.8243C58.0934 29.6074 57.6233 29.4259 56.9645 29.2797L55.5465 28.9696C53.5501 28.541 52.5519 27.525 52.5519 25.9215C52.5519 24.9231 52.9391 24.1164 53.7135 23.5012C54.493 22.8861 55.4937 22.5785 56.7156 22.5785C57.9728 22.5785 58.976 22.8785 59.7252 23.4785C60.4745 24.0735 60.8592 24.8677 60.8793 25.861H58.7446C58.7094 25.4022 58.5058 25.0416 58.1337 24.7794C57.7666 24.5122 57.2964 24.3786 56.7231 24.3786C56.1599 24.3786 55.7049 24.5021 55.3579 24.7492C55.0159 24.9963 54.845 25.3215 54.845 25.7249C54.845 26.0577 54.9832 26.3274 55.2598 26.5342C55.5414 26.7409 55.9965 26.9174 56.6251 27.0636L57.9451 27.3434C59.0363 27.5754 59.8308 27.9384 60.3287 28.4326C60.8265 28.9217 61.0754 29.5822 61.0754 30.4142C61.0754 31.4731 60.6781 32.3151 59.8836 32.9404C59.0891 33.5606 58.0155 33.8707 56.6628 33.8707C55.3503 33.8707 54.3044 33.5782 53.525 32.9933C52.7506 32.4034 52.3457 31.5966 52.3105 30.573Z" fill="#1166C8"/>
<path d="M62.2898 33.6816V25.5736H64.4169V27.0409H64.4622C64.6331 26.5468 64.9248 26.1535 65.3372 25.861C65.7495 25.5686 66.2272 25.4223 66.7703 25.4223C67.3536 25.4223 67.8414 25.5686 68.2336 25.861C68.6259 26.1484 68.8899 26.5568 69.0256 27.0863H69.0709C69.2519 26.577 69.5662 26.1736 70.0138 25.8761C70.4663 25.5736 70.9893 25.4223 71.5827 25.4223C72.3772 25.4223 73.0158 25.6719 73.4986 26.1711C73.9863 26.6703 74.2302 27.3283 74.2302 28.1452V33.6816H72.0277V28.6973C72.0277 28.2284 71.9146 27.8704 71.6883 27.6233C71.462 27.3712 71.1351 27.2451 70.7077 27.2451C70.2903 27.2451 69.9534 27.3838 69.6969 27.6611C69.4455 27.9384 69.3198 28.304 69.3198 28.7578V33.6816H67.2002V28.6292C67.2002 28.1956 67.0846 27.8578 66.8533 27.6157C66.622 27.3687 66.3026 27.2451 65.8953 27.2451C65.4779 27.2451 65.1385 27.3888 64.877 27.6762C64.6206 27.9636 64.4923 28.3343 64.4923 28.7881V33.6816H62.2898Z" fill="#1166C8"/>
<path d="M78.7484 32.2143C79.2362 32.2143 79.6486 32.0731 79.9855 31.7907C80.3274 31.5033 80.4984 31.1428 80.4984 30.7092V30.1192L78.7937 30.2251C78.3813 30.2554 78.062 30.3587 77.8358 30.5352C77.6145 30.7117 77.5039 30.9436 77.5039 31.2311C77.5039 31.5336 77.617 31.7731 77.8433 31.9496C78.0696 32.1261 78.3713 32.2143 78.7484 32.2143ZM78.0243 33.8102C77.2449 33.8102 76.5987 33.5808 76.0858 33.1219C75.5729 32.6631 75.3164 32.0731 75.3164 31.3521C75.3164 30.6159 75.588 30.0386 76.1311 29.62C76.6741 29.2015 77.4511 28.962 78.4618 28.9015L80.4984 28.7805V28.2435C80.4984 27.8704 80.3752 27.5779 80.1288 27.3661C79.8874 27.1544 79.558 27.0485 79.1407 27.0485C78.7384 27.0485 78.409 27.1392 78.1525 27.3208C77.9011 27.5023 77.7477 27.7468 77.6924 28.0544H75.6785C75.7187 27.2577 76.0581 26.6174 76.6968 26.1333C77.3354 25.6442 78.1827 25.3996 79.2387 25.3996C80.2746 25.3996 81.1043 25.6467 81.7279 26.1409C82.3514 26.635 82.6632 27.2905 82.6632 28.1074V33.6816H80.5361V32.4412H80.4909C80.2696 32.8648 79.9327 33.2001 79.4801 33.4471C79.0275 33.6892 78.5423 33.8102 78.0243 33.8102Z" fill="#1166C8"/>
<path d="M84.0888 33.6816V25.5736H86.2159V27.0333H86.2612C86.402 26.519 86.6383 26.1257 86.9702 25.8534C87.3021 25.5812 87.7069 25.445 88.1846 25.445C88.4159 25.445 88.6246 25.4728 88.8107 25.5282V27.472C88.6045 27.3863 88.338 27.3434 88.0111 27.3434C87.468 27.3434 87.0456 27.5023 86.7439 27.8199C86.4422 28.1376 86.2914 28.5813 86.2914 29.1511V33.6816H84.0888Z" fill="#1166C8"/>
<path d="M90.3042 23.7054H92.5067V25.5736H94.0002V27.2376H92.5067V31.1176C92.5067 31.7277 92.8235 32.0328 93.4571 32.0328C93.6633 32.0328 93.8418 32.0202 93.9927 31.995V33.6211C93.7362 33.6816 93.3867 33.7119 92.9442 33.7119C91.9938 33.7119 91.3149 33.5404 90.9076 33.1975C90.5053 32.8547 90.3042 32.2874 90.3042 31.4958V27.2376H89.1652V25.5736H90.3042V23.7054Z" fill="#1166C8"/>
<mask id="path-2-outside-1_270_8039" maskUnits="userSpaceOnUse" x="0" y="0" width="45" height="43" fill="black">
<rect fill="white" width="45" height="43"/>
<path d="M38.5983 2.84038H36.5413V7.31581H32.0847V9.38139H36.5413V13.8568H38.5983V9.38139H43.0549V7.31581H38.5983V2.84038Z"/>
</mask>
<path d="M40.0304 29.2154L39.4762 28.9856L40.0304 29.2154ZM30.645 39.4692L30.3677 38.9371L30.645 39.4692ZM16.8933 41.2758L16.7627 41.8614L16.8933 41.2758ZM1.01847 20.5115L1.61793 20.537L1.01847 20.5115ZM31.8239 4.66388C32.1036 4.84158 32.4744 4.75889 32.6521 4.4792C32.8298 4.1995 32.7471 3.82871 32.4674 3.65101L31.8239 4.66388ZM24.6323 13.5772C24.328 13.4462 23.975 13.5867 23.844 13.891C23.7129 14.1954 23.8535 14.5484 24.1578 14.6794L24.6323 13.5772ZM27.3113 16.2995L27.771 15.914L27.3113 16.2995ZM31.9797 12.179L31.5385 12.5856L31.9797 12.179ZM34.9171 19.4098C34.9749 19.7361 35.2863 19.9538 35.6125 19.896C35.9388 19.8382 36.1565 19.5268 36.0987 19.2005L34.9171 19.4098ZM20.74 37.4224L20.8575 38.0108L20.74 37.4224ZM25.5096 35.1493L25.8503 35.6432L25.5096 35.1493ZM31.3533 32.2697L31.3996 32.868L31.3533 32.2697ZM31.7967 26.3304L31.6487 25.7489L31.7967 26.3304ZM27.651 28.8364L27.2708 28.3723L27.2708 28.3723L27.651 28.8364ZM17.6405 35.3388L17.8309 35.9078L17.6405 35.3388ZM27.6623 28.8272L28.0425 29.2914L28.0425 29.2914L27.6623 28.8272ZM18.3719 30.7491L18.8311 31.1352L18.3719 30.7491ZM34.8272 19.3651L35.0019 18.7911L34.8272 19.3651ZM39.7129 28.5195C39.6986 28.8505 39.9554 29.1305 40.2864 29.1449C40.6175 29.1592 40.8975 28.9024 40.9118 28.5714L39.7129 28.5195ZM13.0695 24.1388L13.6298 23.9242L13.0695 24.1388ZM9.33902 25.7913L9.9173 25.6314L9.33902 25.7913ZM1.91641 24.1388L2.5136 24.1969L1.91641 24.1388ZM14.21 14.062L14.0973 13.4727C14.0845 13.4752 14.0718 13.478 14.0592 13.4813L14.21 14.062ZM21.1579 14.062L21.0199 14.6459L21.1579 14.062ZM0.81242 18.22C0.687098 18.5268 0.834182 18.8771 1.14094 19.0024C1.4477 19.1277 1.79797 18.9806 1.92329 18.6739L0.81242 18.22ZM12.8866 5.07627L12.9792 5.66908L12.8866 5.07627ZM40.0937 15.4811C41.4734 19.9157 41.2548 24.6966 39.4762 28.9856L40.5846 29.4452C42.4708 24.8969 42.7026 19.8272 41.2395 15.1246L40.0937 15.4811ZM39.4762 28.9856C37.6976 33.2745 34.4728 36.7973 30.3677 38.9371L30.9224 40.0012C35.2781 37.7308 38.6985 33.9936 40.5846 29.4452L39.4762 28.9856ZM30.3677 38.9371C26.2626 41.0769 21.5388 41.6975 17.024 40.6902L16.7627 41.8614C21.5538 42.9303 26.5666 42.2717 30.9224 40.0012L30.3677 38.9371ZM17.024 40.6902C12.5092 39.6829 8.49093 37.1119 5.67383 33.4272L4.72052 34.156C7.70861 38.0644 11.9716 40.7925 16.7627 41.8614L17.024 40.6902ZM5.67383 33.4272C2.85669 29.7424 1.42066 25.179 1.61793 20.537L0.419007 20.4861C0.209834 25.4083 1.73247 30.2476 4.72052 34.156L5.67383 33.4272ZM1.61793 20.537C1.81519 15.895 3.63313 11.4712 6.75253 8.04095L5.86472 7.23361C2.55586 10.8722 0.62818 15.5639 0.419007 20.4861L1.61793 20.537ZM6.75253 8.04095C9.87187 4.61074 14.0935 2.3929 18.6773 1.77554L18.5171 0.586277C13.6527 1.24143 9.17364 3.59493 5.86472 7.23361L6.75253 8.04095ZM18.6773 1.77554C23.2611 1.15818 27.9152 2.18057 31.8239 4.66388L32.4674 3.65101C28.3202 1.01622 23.3815 -0.0688834 18.5171 0.586277L18.6773 1.77554ZM24.1578 14.6794C25.199 15.1276 26.1215 15.8144 26.8515 16.685L27.771 15.914C26.9208 14.9001 25.846 14.0997 24.6323 13.5772L24.1578 14.6794ZM26.8515 16.685C27.5815 17.5557 28.0986 18.5859 28.3614 19.6935L29.529 19.4165C29.2232 18.1275 28.6212 16.928 27.771 15.914L26.8515 16.685ZM25.0263 8.67632C27.5247 9.32622 29.785 10.6829 31.5385 12.5856L32.4209 11.7724C30.5118 9.70077 28.0501 8.22295 25.3284 7.51497L25.0263 8.67632ZM31.5385 12.5856C33.292 14.4883 34.4647 16.8568 34.9171 19.4098L36.0987 19.2005C35.6064 16.4222 34.33 13.844 32.4209 11.7724L31.5385 12.5856ZM4.63959 33.7794C7.32219 36.0243 13.8985 39.4008 20.8575 38.0108L20.6225 36.834C14.1361 38.1297 7.91895 34.9589 5.40971 32.8591L4.63959 33.7794ZM25.8503 35.6432C26.8148 34.9776 27.8325 34.3066 28.8095 33.7869C29.7983 33.261 30.686 32.9232 31.3996 32.868L31.307 31.6715C30.3409 31.7463 29.2751 32.1801 28.246 32.7274C27.2052 33.281 26.1408 33.9848 25.1688 34.6555L25.8503 35.6432ZM31.3996 32.868C32.1167 32.8125 32.9174 32.8178 33.573 33.1841C34.1799 33.5233 34.7924 34.2505 34.9615 35.9492L36.1556 35.8303C35.9591 33.8568 35.1981 32.7176 34.1584 32.1366C33.1674 31.5828 32.0483 31.6142 31.307 31.6715L31.3996 32.868ZM20.8575 38.0108C22.726 37.6376 24.3687 36.6656 25.8503 35.6432L25.1688 34.6555C23.7191 35.6559 22.2423 36.5105 20.6225 36.834L20.8575 38.0108ZM38.8941 32.1257C38.7029 30.8916 38.2419 29.0011 37.1657 27.5608C36.6207 26.8315 35.905 26.2004 34.9731 25.8434C34.0375 25.4849 32.9336 25.422 31.6487 25.7489L31.9446 26.9118C33.0275 26.6364 33.8741 26.7074 34.5438 26.964C35.2172 27.2219 35.7618 27.6867 36.2044 28.2791C37.1033 29.4821 37.5267 31.1375 37.7082 32.3094L38.8941 32.1257ZM27.2708 28.3723C25.7369 29.6288 23.9218 31.0172 22.1611 32.2008C20.3885 33.3923 18.7136 34.3469 17.45 34.7698L17.8309 35.9078C19.2558 35.4308 21.042 34.399 22.8305 33.1968C24.6308 31.9866 26.4768 30.5739 28.0312 29.3006L27.2708 28.3723ZM17.45 34.7698C16.0334 35.244 13.9257 35.5554 11.7353 35.3245C9.54772 35.0939 7.32718 34.3284 5.62165 32.7014L4.79333 33.5696C6.74456 35.4311 9.24336 36.2685 11.6095 36.5179C13.9729 36.7671 16.2533 36.4359 17.8309 35.9078L17.45 34.7698ZM31.6487 25.7489C29.9216 26.1882 28.5205 27.3486 27.2821 28.3631L28.0425 29.2914C29.3234 28.2421 30.5207 27.2741 31.9446 26.9118L31.6487 25.7489ZM27.2821 28.3631L27.2708 28.3723L28.0312 29.3006L28.0425 29.2914L27.2821 28.3631ZM3.69576 32.6512C5.0537 33.9499 7.35767 35.3155 10.0808 35.479C12.8408 35.6447 15.9433 34.5694 18.8311 31.1352L17.9127 30.3629C15.2422 33.5387 12.4939 34.4217 10.1527 34.2812C7.77457 34.1384 5.72696 32.9333 4.52517 31.784L3.69576 32.6512ZM18.8311 31.1352C22.334 26.9696 24.8878 23.7309 27.3228 21.7342C28.5273 20.7465 29.6677 20.0945 30.8396 19.7878C32.003 19.4834 33.2378 19.5086 34.6526 19.9391L35.0019 18.7911C33.3998 18.3036 31.9378 18.26 30.5358 18.6269C29.1422 18.9916 27.8486 19.7512 26.5619 20.8062C24.0147 22.8949 21.3576 26.2662 17.9127 30.3629L18.8311 31.1352ZM34.6526 19.9391C36.872 20.6145 38.1524 22.0654 38.8774 23.6943C39.6109 25.3421 39.7714 27.1697 39.7129 28.5195L40.9118 28.5714C40.9753 27.1058 40.8066 25.0777 39.9738 23.2064C39.1325 21.3162 37.6093 19.5845 35.0019 18.7911L34.6526 19.9391ZM16.1042 13.3144C15.4557 13.6208 14.8279 14.2385 14.2821 14.9854C13.7272 15.7447 13.2188 16.6899 12.8284 17.7204C12.0546 19.7629 11.7045 22.2525 12.5092 24.3534L13.6298 23.9242C12.9718 22.2061 13.2312 20.0443 13.9506 18.1455C14.3068 17.2052 14.7659 16.3571 15.2509 15.6935C15.7449 15.0175 16.2294 14.5824 16.617 14.3993L16.1042 13.3144ZM12.5092 24.3534C13.3128 26.4515 14.9191 27.7013 16.4908 28.372C18.0357 29.0314 19.6355 29.1681 20.5291 28.9438L20.2369 27.7799C19.6679 27.9227 18.3423 27.8575 16.9618 27.2683C15.608 26.6906 14.289 25.6453 13.6298 23.9242L12.5092 24.3534ZM13.3544 13.6851C11.9993 14.348 10.4833 16.0499 9.4932 18.2109C8.49299 20.394 7.98355 23.1416 8.76074 25.9513L9.9173 25.6314C9.23179 23.1531 9.6734 20.6985 10.5842 18.7107C11.505 16.7007 12.8599 15.2629 13.8817 14.763L13.3544 13.6851ZM8.76074 25.9513C10.3139 31.5663 14.6438 32.8176 16.9091 32.8176V31.6176C15.0301 31.6176 11.2895 30.5921 9.9173 25.6314L8.76074 25.9513ZM12.2879 34.0941C10.381 32.9157 7.97372 30.688 6.90163 27.6828C5.8464 24.7249 6.04764 20.9126 9.52145 16.4275L8.57273 15.6927C4.87928 20.4614 4.56248 24.6973 5.7714 28.086C6.96345 31.4275 9.60248 33.8452 11.6571 35.1149L12.2879 34.0941ZM7.3772 33.8422C6.562 33.6189 5.20044 32.6436 4.10278 30.9502C3.02306 29.2845 2.24266 26.9856 2.5136 24.1969L1.31922 24.0808C1.01934 27.1675 1.88449 29.7342 3.09582 31.6029C4.28921 33.444 5.86419 34.672 7.06022 34.9996L7.3772 33.8422ZM2.5136 24.1969C2.77962 21.4586 4.78061 19.3056 7.28247 17.6904C9.76996 16.0845 12.6318 15.0918 14.3608 14.6428L14.0592 13.4813C12.2534 13.9503 9.26095 14.9848 6.63162 16.6822C4.01666 18.3704 1.63827 20.7968 1.31922 24.0808L2.5136 24.1969ZM14.3227 14.6513C15.5698 14.4128 18.6539 14.0869 21.0199 14.6459L21.2958 13.4781C18.6887 12.8621 15.41 13.2216 14.0973 13.4727L14.3227 14.6513ZM21.0199 14.6459C21.8858 14.8505 22.8761 14.8614 23.7986 14.6761C24.7165 14.4917 25.6219 14.1016 26.2682 13.4526C26.9352 12.7828 27.2941 11.8654 27.1249 10.7449C26.9605 9.65703 26.3073 8.42792 25.0794 7.0525L24.1842 7.85169C25.3331 9.13859 25.8227 10.1587 25.9383 10.9241C26.049 11.6569 25.8252 12.1969 25.4179 12.6058C24.9901 13.0355 24.3299 13.3454 23.5623 13.4996C22.7993 13.6528 21.9841 13.6407 21.2958 13.4781L21.0199 14.6459ZM25.0794 7.0525C22.4913 4.15363 17.8748 3.68317 13.84 4.33518C11.7977 4.66522 9.84028 5.29078 8.26461 6.09088C6.71386 6.87833 5.43527 7.88455 4.89158 9.0311L5.97585 9.54525C6.34636 8.76392 7.33039 7.91111 8.80792 7.16084C10.2605 6.42324 12.097 5.8324 14.0314 5.51981C17.9502 4.88656 22.0185 5.42595 24.1842 7.85169L25.0794 7.0525ZM1.92329 18.6739C2.13002 18.1679 2.61288 17.4353 3.35684 16.6074C4.09299 15.7882 5.05819 14.9051 6.19604 14.0926C8.47831 12.463 11.4055 11.1518 14.5322 11.1518V9.95184C11.0767 9.95184 7.90927 11.3948 5.49871 13.116C4.29014 13.979 3.25937 14.9205 2.46425 15.8054C1.67695 16.6815 1.09326 17.5326 0.81242 18.22L1.92329 18.6739ZM14.5322 11.1518C18.632 11.1518 20.9343 10.9199 22.2177 10.4353C22.8833 10.1839 23.345 9.83956 23.6159 9.36256C23.8772 8.9025 23.9084 8.40495 23.9084 7.98127H22.7084C22.7084 8.36747 22.6711 8.59618 22.5724 8.76995C22.4834 8.92679 22.2937 9.12386 21.7937 9.31265C20.7458 9.70837 18.6601 9.95184 14.5322 9.95184V11.1518ZM23.9084 7.98127C23.9084 6.40847 22.7662 5.24483 20.8999 4.64158C19.0401 4.04043 16.3283 3.93135 12.794 4.48346L12.9792 5.66908C16.4258 5.13067 18.9249 5.26432 20.5308 5.78341C22.1302 6.3004 22.7084 7.13451 22.7084 7.98127H23.9084ZM12.794 4.48346C6.83958 5.41365 3.42029 10.4013 2.46682 12.5078L3.56005 13.0026C4.43493 11.0697 7.59783 6.50976 12.9792 5.66908L12.794 4.48346ZM36.5413 2.84038V1.64038C35.8786 1.64038 35.3413 2.17763 35.3413 2.84038H36.5413ZM38.5983 2.84038H39.7983C39.7983 2.17763 39.261 1.64038 38.5983 1.64038V2.84038ZM36.5413 7.31581V8.51581C37.2041 8.51581 37.7413 7.97855 37.7413 7.31581H36.5413ZM32.0847 7.31581V6.11581C31.4219 6.11581 30.8847 6.65307 30.8847 7.31581H32.0847ZM32.0847 9.38139H30.8847C30.8847 10.0441 31.4219 10.5814 32.0847 10.5814V9.38139ZM36.5413 9.38139H37.7413C37.7413 8.71865 37.2041 8.18139 36.5413 8.18139V9.38139ZM36.5413 13.8568H35.3413C35.3413 14.5196 35.8786 15.0568 36.5413 15.0568V13.8568ZM38.5983 13.8568V15.0568C39.261 15.0568 39.7983 14.5196 39.7983 13.8568H38.5983ZM38.5983 9.38139V8.18139C37.9355 8.18139 37.3983 8.71865 37.3983 9.38139H38.5983ZM43.0549 9.38139V10.5814C43.7177 10.5814 44.2549 10.0441 44.2549 9.38139H43.0549ZM43.0549 7.31581H44.2549C44.2549 6.65307 43.7177 6.11581 43.0549 6.11581V7.31581ZM38.5983 7.31581H37.3983C37.3983 7.97855 37.9355 8.51581 38.5983 8.51581V7.31581ZM36.5413 4.04038H38.5983V1.64038H36.5413V4.04038ZM37.7413 7.31581V2.84038H35.3413V7.31581H37.7413ZM32.0847 8.51581H36.5413V6.11581H32.0847V8.51581ZM33.2847 9.38139V7.31581H30.8847V9.38139H33.2847ZM36.5413 8.18139H32.0847V10.5814H36.5413V8.18139ZM37.7413 13.8568V9.38139H35.3413V13.8568H37.7413ZM38.5983 12.6568H36.5413V15.0568H38.5983V12.6568ZM37.3983 9.38139V13.8568H39.7983V9.38139H37.3983ZM43.0549 8.18139H38.5983V10.5814H43.0549V8.18139ZM41.8549 7.31581V9.38139H44.2549V7.31581H41.8549ZM38.5983 8.51581H43.0549V6.11581H38.5983V8.51581ZM37.3983 2.84038V7.31581H39.7983V2.84038H37.3983Z" fill="#1166C8" mask="url(#path-2-outside-1_270_8039)"/>
</svg>
