<svg width="25" height="25" viewBox="0 0 25 25" fill="none" xmlns="http://www.w3.org/2000/svg">
<g id="Group 45">
<rect id="Rectangle 35" x="0.5" y="0.5" width="24" height="24" rx="4.5" stroke="#AFBACA"/>
<path id="+" d="M11.497 18C11.497 18.1381 11.6089 18.25 11.747 18.25H13.2651C13.4031 18.25 13.5151 18.1381 13.5151 18V13.5082H18C18.1381 13.5082 18.25 13.3963 18.25 13.2582V11.7418C18.25 11.6037 18.1381 11.4918 18 11.4918H13.5151V7C13.5151 6.86193 13.4031 6.75 13.2651 6.75H11.747C11.6089 6.75 11.497 6.86193 11.497 7V11.4918H7C6.86193 11.4918 6.75 11.6037 6.75 11.7418V13.2582C6.75 13.3963 6.86193 13.5082 7 13.5082H11.497V18Z" fill="#AFBACA" stroke="#AFBACA" stroke-width="0.5" stroke-linejoin="round"/>
</g>
</svg>
