<svg width="36" height="36" viewBox="0 0 36 36" fill="none" xmlns="http://www.w3.org/2000/svg">
<g id="carbon:radar">
<path id="Vector" d="M33.75 3.84075L32.1593 2.25L17.2046 17.2046C16.9997 17.4168 16.8863 17.701 16.8889 17.996C16.8914 18.2909 17.0098 18.5731 17.2183 18.7817C17.4269 18.9903 17.7091 19.1086 18.0041 19.1111C18.299 19.1137 18.5832 19.0003 18.7954 18.7954L23.4979 14.0929C24.3727 15.3262 24.8078 16.8176 24.7333 18.3279C24.6588 19.8381 24.079 21.2795 23.0871 22.4207C22.0951 23.5619 20.7485 24.3367 19.2634 24.6209C17.7783 24.905 16.2408 24.6819 14.8976 23.9874C13.5545 23.2928 12.4837 22.1672 11.857 20.7911C11.2304 19.415 11.0842 17.8683 11.442 16.3992C11.7999 14.9301 12.6409 13.6238 13.8302 12.69C15.0194 11.7562 16.488 11.2491 18 11.25V9C15.9628 8.99705 13.9847 9.68441 12.3882 10.95C10.7918 12.2156 9.67124 13.9847 9.20931 15.9689C8.74738 17.953 8.97132 20.0352 9.84462 21.8757C10.7179 23.7163 12.1891 25.2066 14.0181 26.1038C15.8471 27.0009 17.9262 27.2519 19.9162 26.8158C21.9062 26.3797 23.6897 25.2823 24.976 23.7024C26.2622 22.1226 26.9752 20.1535 26.9987 18.1164C27.0222 16.0793 26.3549 14.0944 25.1055 12.4852L28.3084 9.28238C30.3796 11.7136 31.5119 14.8061 31.5 18C31.5 20.67 30.7082 23.2801 29.2248 25.5002C27.7414 27.7203 25.633 29.4506 23.1662 30.4724C20.6994 31.4942 17.985 31.7615 15.3663 31.2406C12.7475 30.7197 10.3421 29.434 8.45407 27.5459C6.56606 25.6579 5.28031 23.2525 4.75941 20.6337C4.23851 18.015 4.50585 15.3006 5.52763 12.8338C6.54942 10.367 8.27975 8.25856 10.4998 6.77516C12.7199 5.29176 15.33 4.5 18 4.5V2.25C14.885 2.25 11.8398 3.17372 9.24978 4.90435C6.6597 6.63499 4.64098 9.0948 3.4489 11.9727C2.25682 14.8507 1.94492 18.0175 2.55264 21.0727C3.16036 24.1279 4.6604 26.9343 6.86307 29.1369C9.06575 31.3396 11.8721 32.8397 14.9273 33.4474C17.9825 34.0551 21.1493 33.7432 24.0273 32.5511C26.9052 31.359 29.365 29.3403 31.0957 26.7502C32.8263 24.1602 33.75 21.1151 33.75 18C33.7627 14.2098 32.3941 10.5447 29.9003 7.6905L33.75 3.84075Z" fill="#1166C8"/>
</g>
</svg>
