<svg width="36" height="36" viewBox="0 0 36 36" fill="none" xmlns="http://www.w3.org/2000/svg">
<g id="solar:box-linear">
<path id="Vector" d="M31.5 11.25L25.5 14.25M25.5 14.25L24.75 14.625L18 18M25.5 14.25V19.5M25.5 14.25L11.25 6.75M18 18L4.5 11.25M18 18V32.25M23.367 5.073L26.367 6.648C29.5935 8.3415 31.2075 9.1875 32.1045 10.71C33 12.231 33 14.1255 33 17.91V18.0855C33 21.873 33 23.7675 32.1045 25.2885C31.2075 26.811 29.5935 27.6585 26.367 29.352L23.367 30.9255C20.733 32.3085 19.416 33 18 33C16.584 33 15.267 32.31 12.633 30.927L9.633 29.352C6.4065 27.6585 4.7925 26.8125 3.8955 25.29C3 23.769 3 21.8745 3 18.09V17.9145C3 14.127 3 12.2325 3.8955 10.7115C4.7925 9.189 6.4065 8.3415 9.633 6.6495L12.633 5.0745C15.267 3.6915 16.584 3 18 3C19.416 3 20.733 3.69 23.367 5.073Z" stroke="#1166C8" stroke-width="2" stroke-linecap="round"/>
</g>
</svg>
