<svg width="131" height="131" viewBox="0 0 131 131" fill="none" xmlns="http://www.w3.org/2000/svg">
<g id="heroicons-outline:light-bulb">
<path id="Vector" d="M52.7439 92.7917H78.2507M65.5 16.375V21.8333M100.237 30.7632L96.3778 34.6222M114.625 65.5H109.167M21.8333 65.5H16.375M34.6222 34.6222L30.7632 30.7632M46.1993 84.8007C42.3832 80.9836 39.7847 76.1207 38.7322 70.8268C37.6797 65.5329 38.2206 60.0458 40.2865 55.0594C42.3523 50.0729 45.8504 45.8109 50.3383 42.8124C54.8262 39.8139 60.1025 38.2134 65.5 38.2134C70.8975 38.2134 76.1738 39.8139 80.6617 42.8124C85.1496 45.8109 88.6477 50.0729 90.7135 55.0594C92.7794 60.0458 93.3203 65.5329 92.2678 70.8268C91.2153 76.1207 88.6168 80.9836 84.8007 84.8007L81.8095 87.7864C80.0995 89.4967 78.743 91.5272 77.8177 93.7618C76.8924 95.9964 76.4164 98.3914 76.4167 100.81V103.708C76.4167 106.604 75.2665 109.38 73.2192 111.428C71.172 113.475 68.3953 114.625 65.5 114.625C62.6047 114.625 59.828 113.475 57.7808 111.428C55.7335 109.38 54.5833 106.604 54.5833 103.708V100.81C54.5833 95.9248 52.6402 91.236 49.1905 87.7864L46.1993 84.8007Z" stroke="#1166C8" stroke-width="6" stroke-linecap="round" stroke-linejoin="round"/>
</g>
</svg>
