<svg width="30" height="30" viewBox="0 0 30 30" fill="none" xmlns="http://www.w3.org/2000/svg">
<g id="solar:home-angle-linear">
<g id="Group">
<path id="Vector" d="M2.95483 16.1975C2.47983 12.9013 2.24233 11.2525 2.91858 9.84375C3.59358 8.435 5.03233 7.5775 7.90858 5.865L9.63983 4.83375C12.2498 3.2775 13.5573 2.5 14.9998 2.5C16.4423 2.5 17.7486 3.2775 20.3598 4.83375L22.0911 5.865C24.9661 7.5775 26.4048 8.435 27.0811 9.84375C27.7561 11.2525 27.5186 12.9013 27.0436 16.1975L26.6961 18.6188C26.0873 22.8538 25.7823 24.97 24.3136 26.235C22.8448 27.5 20.6911 27.5 16.3823 27.5H13.6173C9.30858 27.5 7.15483 27.5 5.68608 26.235C4.21733 24.97 3.91233 22.8538 3.30358 18.6188L2.95483 16.1975Z" stroke="#8897AE" stroke-width="1.875"/>
<path id="Vector_2" d="M18.75 22.5H11.25" stroke="#8897AE" stroke-width="1.875" stroke-linecap="round"/>
</g>
</g>
</svg>
