<svg width="125" height="125" viewBox="0 0 125 125" fill="none" xmlns="http://www.w3.org/2000/svg">
<g id="material-symbols:mode-fan-outline">
<g id="Vector">
<mask id="path-1-inside-1_168_7897" fill="white">
<path d="M55.2082 114.583C50.7811 114.583 47.4182 113.259 45.1196 110.609C42.821 107.96 41.67 104.944 41.6665 101.563C41.6665 99.3056 42.1665 97.1129 43.1665 94.9844C44.1665 92.8559 45.7064 91.099 47.7863 89.7136C49.696 88.4983 51.2377 86.9358 52.4113 85.0261C53.5849 83.1163 54.387 81.0764 54.8175 78.9063L53.255 78.125C52.7342 77.8646 52.2568 77.5608 51.8228 77.2136L39.8436 81.5104C38.3679 82.0313 36.9356 82.4653 35.5467 82.8125C34.1578 83.1597 32.7255 83.3334 31.2498 83.3334C25.7811 83.3334 20.9408 80.9462 16.729 76.1719C12.5172 71.3976 10.413 64.4097 10.4165 55.2084C10.4165 50.7813 11.7412 47.4184 14.3905 45.1198C17.0398 42.8212 20.0103 41.6702 23.3019 41.6667C25.5589 41.6667 27.7724 42.1667 29.9425 43.1667C32.1127 44.1667 33.8922 45.7066 35.2811 47.7865C36.4964 49.6962 38.0589 51.2361 39.9686 52.4063C41.8783 53.5764 43.9182 54.3802 46.0884 54.8177L46.8696 53.2552C47.13 52.7344 47.4339 52.257 47.7811 51.8229L43.4842 39.8438C42.9634 38.3681 42.5294 36.9358 42.1821 35.5469C41.8349 34.158 41.6613 32.7691 41.6613 31.3802C41.6613 25.8247 44.0484 20.941 48.8228 16.7292C53.5971 12.5174 60.5866 10.4132 69.7915 10.4167C74.2186 10.4167 77.5832 11.7413 79.8853 14.3906C82.1873 17.04 83.3366 20.0104 83.3332 23.3021C83.3332 25.5591 82.8332 27.7726 81.8332 29.9427C80.8332 32.1129 79.2932 33.8924 77.2134 35.2813C75.3037 36.4966 73.7637 38.0591 72.5936 39.9688C71.4234 41.8785 70.6196 43.9184 70.1821 46.0886L71.7446 46.8698C72.2655 47.1302 72.7429 47.434 73.1769 47.7813L85.1561 43.3542C86.6318 42.8334 88.0432 42.4219 89.3905 42.1198C90.7377 41.8177 92.1474 41.6667 93.6196 41.6667C100.651 41.6667 105.903 44.5747 109.375 50.3906C112.847 56.2066 114.583 62.6736 114.583 69.7917C114.583 74.2188 113.194 77.5834 110.417 79.8854C107.639 82.1875 104.557 83.3368 101.172 83.3334C99.0016 83.3334 96.8957 82.8334 94.854 81.8334C92.8123 80.8334 91.0988 79.2934 89.7134 77.2136C88.4981 75.3038 86.9356 73.7639 85.0259 72.5938C83.1162 71.4236 81.0762 70.6198 78.9061 70.1823L78.1248 71.7448C77.8644 72.2656 77.5606 72.7431 77.2134 73.1771L81.5103 85.1563C82.0311 86.5452 82.4651 87.8698 82.8123 89.1302C83.1596 90.3906 83.3332 91.7136 83.3332 93.099C83.42 98.7413 81.0762 103.733 76.3019 108.073C71.5276 112.413 64.4964 114.583 55.2082 114.583ZM62.4998 70.3125C64.67 70.3125 66.5155 69.5521 68.0363 68.0313C69.5571 66.5104 70.3158 64.6667 70.3123 62.5C70.3123 60.3299 69.5519 58.4844 68.0311 56.9636C66.5103 55.4427 64.6665 54.6841 62.4998 54.6875C60.3297 54.6875 58.4842 55.4479 56.9634 56.9688C55.4425 58.4896 54.6839 60.3334 54.6873 62.5C54.6873 64.6702 55.4478 66.5156 56.9686 68.0365C58.4894 69.5573 60.3332 70.316 62.4998 70.3125ZM56.5103 45.3125C57.0311 45.1389 57.5745 44.9861 58.1405 44.8542C58.7064 44.7222 59.2481 44.6146 59.7655 44.5313C60.4599 40.8854 61.7846 37.5 63.7394 34.375C65.6943 31.25 68.2759 28.6459 71.4842 26.5625C71.9182 26.2153 72.2655 25.7813 72.5259 25.2604C72.7863 24.7396 72.9165 24.0886 72.9165 23.3073C72.9165 22.6129 72.6561 22.0278 72.1353 21.5521C71.6144 21.0764 70.8332 20.8368 69.7915 20.8334C66.4929 20.8334 62.7603 21.5504 58.5936 22.9844C54.4269 24.4184 52.2568 27.2153 52.0832 31.375C52.0832 32.1563 52.1925 32.8941 52.4113 33.5886C52.63 34.283 52.8245 34.9341 52.9946 35.5417L56.5103 45.3125ZM31.2498 72.9167C32.4651 72.9167 33.8974 72.6129 35.5467 72.0052L45.3123 68.4896C45.1387 67.9688 44.986 67.4254 44.854 66.8594C44.7221 66.2934 44.6144 65.7518 44.5311 65.2344C40.8853 64.54 37.4998 63.2153 34.3748 61.2604C31.2498 59.3056 28.6457 56.724 26.5623 53.5156C26.2151 53.0816 25.7603 52.7344 25.1978 52.474C24.6353 52.2136 24.005 52.0834 23.3071 52.0834C22.5259 52.0834 21.9182 52.3438 21.4842 52.8646C21.0502 53.3854 20.8332 54.1667 20.8332 55.2084C20.8332 59.8959 21.7238 64.0191 23.505 67.5781C25.2863 71.1372 27.8679 72.9167 31.2498 72.9167ZM55.2082 104.167C59.288 104.167 63.3037 103.342 67.255 101.693C71.2064 100.043 73.0936 97.1788 72.9165 93.099C72.9165 92.4045 72.8089 91.7535 72.5936 91.1459C72.3783 90.5382 72.1821 89.974 72.005 89.4531L68.4894 79.6875C67.9686 79.8611 67.4252 80.0139 66.8592 80.1459C66.2932 80.2778 65.7516 80.3854 65.2342 80.4688C64.5398 84.1146 63.2151 87.5 61.2603 90.625C59.3054 93.75 56.7238 96.3542 53.5155 98.4375C53.0814 98.7847 52.7116 99.2413 52.4061 99.8073C52.1005 100.373 51.9929 100.958 52.0832 101.563C52.17 102.257 52.4304 102.865 52.8644 103.385C53.2984 103.906 54.0797 104.167 55.2082 104.167ZM101.172 72.9167C101.953 72.9167 102.647 72.6997 103.255 72.2656C103.863 71.8316 104.166 71.007 104.166 69.7917C104.166 66.4931 103.472 62.7379 102.083 58.5261C100.694 54.3143 97.8731 52.1667 93.6196 52.0834C92.8384 52.0834 92.1005 52.1702 91.4061 52.3438C90.7116 52.5174 90.0606 52.691 89.453 52.8646L79.6873 56.5104C79.861 57.0313 80.0137 57.5747 80.1457 58.1406C80.2776 58.7066 80.3853 59.2483 80.4686 59.7656C84.1144 60.4601 87.4998 61.7847 90.6248 63.7396C93.7498 65.6945 96.354 68.2761 98.4373 71.4844C98.6977 71.9184 99.0884 72.2656 99.6092 72.5261C100.13 72.7865 100.651 72.9167 101.172 72.9167Z"/>
</mask>
<path d="M55.2082 114.583C50.7811 114.583 47.4182 113.259 45.1196 110.609C42.821 107.96 41.67 104.944 41.6665 101.563C41.6665 99.3056 42.1665 97.1129 43.1665 94.9844C44.1665 92.8559 45.7064 91.099 47.7863 89.7136C49.696 88.4983 51.2377 86.9358 52.4113 85.0261C53.5849 83.1163 54.387 81.0764 54.8175 78.9063L53.255 78.125C52.7342 77.8646 52.2568 77.5608 51.8228 77.2136L39.8436 81.5104C38.3679 82.0313 36.9356 82.4653 35.5467 82.8125C34.1578 83.1597 32.7255 83.3334 31.2498 83.3334C25.7811 83.3334 20.9408 80.9462 16.729 76.1719C12.5172 71.3976 10.413 64.4097 10.4165 55.2084C10.4165 50.7813 11.7412 47.4184 14.3905 45.1198C17.0398 42.8212 20.0103 41.6702 23.3019 41.6667C25.5589 41.6667 27.7724 42.1667 29.9425 43.1667C32.1127 44.1667 33.8922 45.7066 35.2811 47.7865C36.4964 49.6962 38.0589 51.2361 39.9686 52.4063C41.8783 53.5764 43.9182 54.3802 46.0884 54.8177L46.8696 53.2552C47.13 52.7344 47.4339 52.257 47.7811 51.8229L43.4842 39.8438C42.9634 38.3681 42.5294 36.9358 42.1821 35.5469C41.8349 34.158 41.6613 32.7691 41.6613 31.3802C41.6613 25.8247 44.0484 20.941 48.8228 16.7292C53.5971 12.5174 60.5866 10.4132 69.7915 10.4167C74.2186 10.4167 77.5832 11.7413 79.8853 14.3906C82.1873 17.04 83.3366 20.0104 83.3332 23.3021C83.3332 25.5591 82.8332 27.7726 81.8332 29.9427C80.8332 32.1129 79.2932 33.8924 77.2134 35.2813C75.3037 36.4966 73.7637 38.0591 72.5936 39.9688C71.4234 41.8785 70.6196 43.9184 70.1821 46.0886L71.7446 46.8698C72.2655 47.1302 72.7429 47.434 73.1769 47.7813L85.1561 43.3542C86.6318 42.8334 88.0432 42.4219 89.3905 42.1198C90.7377 41.8177 92.1474 41.6667 93.6196 41.6667C100.651 41.6667 105.903 44.5747 109.375 50.3906C112.847 56.2066 114.583 62.6736 114.583 69.7917C114.583 74.2188 113.194 77.5834 110.417 79.8854C107.639 82.1875 104.557 83.3368 101.172 83.3334C99.0016 83.3334 96.8957 82.8334 94.854 81.8334C92.8123 80.8334 91.0988 79.2934 89.7134 77.2136C88.4981 75.3038 86.9356 73.7639 85.0259 72.5938C83.1162 71.4236 81.0762 70.6198 78.9061 70.1823L78.1248 71.7448C77.8644 72.2656 77.5606 72.7431 77.2134 73.1771L81.5103 85.1563C82.0311 86.5452 82.4651 87.8698 82.8123 89.1302C83.1596 90.3906 83.3332 91.7136 83.3332 93.099C83.42 98.7413 81.0762 103.733 76.3019 108.073C71.5276 112.413 64.4964 114.583 55.2082 114.583ZM62.4998 70.3125C64.67 70.3125 66.5155 69.5521 68.0363 68.0313C69.5571 66.5104 70.3158 64.6667 70.3123 62.5C70.3123 60.3299 69.5519 58.4844 68.0311 56.9636C66.5103 55.4427 64.6665 54.6841 62.4998 54.6875C60.3297 54.6875 58.4842 55.4479 56.9634 56.9688C55.4425 58.4896 54.6839 60.3334 54.6873 62.5C54.6873 64.6702 55.4478 66.5156 56.9686 68.0365C58.4894 69.5573 60.3332 70.316 62.4998 70.3125ZM56.5103 45.3125C57.0311 45.1389 57.5745 44.9861 58.1405 44.8542C58.7064 44.7222 59.2481 44.6146 59.7655 44.5313C60.4599 40.8854 61.7846 37.5 63.7394 34.375C65.6943 31.25 68.2759 28.6459 71.4842 26.5625C71.9182 26.2153 72.2655 25.7813 72.5259 25.2604C72.7863 24.7396 72.9165 24.0886 72.9165 23.3073C72.9165 22.6129 72.6561 22.0278 72.1353 21.5521C71.6144 21.0764 70.8332 20.8368 69.7915 20.8334C66.4929 20.8334 62.7603 21.5504 58.5936 22.9844C54.4269 24.4184 52.2568 27.2153 52.0832 31.375C52.0832 32.1563 52.1925 32.8941 52.4113 33.5886C52.63 34.283 52.8245 34.9341 52.9946 35.5417L56.5103 45.3125ZM31.2498 72.9167C32.4651 72.9167 33.8974 72.6129 35.5467 72.0052L45.3123 68.4896C45.1387 67.9688 44.986 67.4254 44.854 66.8594C44.7221 66.2934 44.6144 65.7518 44.5311 65.2344C40.8853 64.54 37.4998 63.2153 34.3748 61.2604C31.2498 59.3056 28.6457 56.724 26.5623 53.5156C26.2151 53.0816 25.7603 52.7344 25.1978 52.474C24.6353 52.2136 24.005 52.0834 23.3071 52.0834C22.5259 52.0834 21.9182 52.3438 21.4842 52.8646C21.0502 53.3854 20.8332 54.1667 20.8332 55.2084C20.8332 59.8959 21.7238 64.0191 23.505 67.5781C25.2863 71.1372 27.8679 72.9167 31.2498 72.9167ZM55.2082 104.167C59.288 104.167 63.3037 103.342 67.255 101.693C71.2064 100.043 73.0936 97.1788 72.9165 93.099C72.9165 92.4045 72.8089 91.7535 72.5936 91.1459C72.3783 90.5382 72.1821 89.974 72.005 89.4531L68.4894 79.6875C67.9686 79.8611 67.4252 80.0139 66.8592 80.1459C66.2932 80.2778 65.7516 80.3854 65.2342 80.4688C64.5398 84.1146 63.2151 87.5 61.2603 90.625C59.3054 93.75 56.7238 96.3542 53.5155 98.4375C53.0814 98.7847 52.7116 99.2413 52.4061 99.8073C52.1005 100.373 51.9929 100.958 52.0832 101.563C52.17 102.257 52.4304 102.865 52.8644 103.385C53.2984 103.906 54.0797 104.167 55.2082 104.167ZM101.172 72.9167C101.953 72.9167 102.647 72.6997 103.255 72.2656C103.863 71.8316 104.166 71.007 104.166 69.7917C104.166 66.4931 103.472 62.7379 102.083 58.5261C100.694 54.3143 97.8731 52.1667 93.6196 52.0834C92.8384 52.0834 92.1005 52.1702 91.4061 52.3438C90.7116 52.5174 90.0606 52.691 89.453 52.8646L79.6873 56.5104C79.861 57.0313 80.0137 57.5747 80.1457 58.1406C80.2776 58.7066 80.3853 59.2483 80.4686 59.7656C84.1144 60.4601 87.4998 61.7847 90.6248 63.7396C93.7498 65.6945 96.354 68.2761 98.4373 71.4844C98.6977 71.9184 99.0884 72.2656 99.6092 72.5261C100.13 72.7865 100.651 72.9167 101.172 72.9167Z" fill="#5E718D" stroke="white" stroke-width="4" mask="url(#path-1-inside-1_168_7897)"/>
</g>
</g>
</svg>
