<svg width="15" height="15" viewBox="0 0 15 15" fill="none" xmlns="http://www.w3.org/2000/svg">
<g id="material-symbols:question-exchange" clip-path="url(#clip0_427_15733)">
<path id="Vector" d="M7.5 14.375C6.33333 14.375 5.26042 14.1094 4.28125 13.5781C3.30208 13.0469 2.5 12.3385 1.875 11.4531V13.125H0.625V9.37498H4.375V10.625H2.82812C3.32812 11.375 3.98708 11.9792 4.805 12.4375C5.62292 12.8958 6.52125 13.125 7.5 13.125C8.28125 13.125 9.01312 12.9764 9.69562 12.6794C10.3781 12.3823 10.9719 11.9814 11.4769 11.4769C11.9819 10.9714 12.3829 10.3777 12.68 9.69561C12.9771 9.01353 13.1254 8.28165 13.125 7.49998H14.375C14.375 8.4479 14.1952 9.33853 13.8356 10.1719C13.476 11.0052 12.984 11.7344 12.3594 12.3594C11.7344 12.9844 11.0052 13.4767 10.1719 13.8362C9.33854 14.1958 8.44792 14.3754 7.5 14.375ZM0.625 7.49998C0.625 6.55207 0.804792 5.66144 1.16438 4.82811C1.52396 3.99478 2.01604 3.26561 2.64062 2.64061C3.26562 2.01561 3.99479 1.52353 4.82812 1.16436C5.66146 0.805193 6.55208 0.625401 7.5 0.624985C8.66667 0.624985 9.73958 0.89061 10.7188 1.42186C11.6979 1.95311 12.5 2.66144 13.125 3.54686V1.87498H14.375V5.62498H10.625V4.37498H12.1719C11.6719 3.62498 11.0129 3.02082 10.195 2.56248C9.37708 2.10415 8.47875 1.87498 7.5 1.87498C6.71875 1.87498 5.98688 2.02353 5.30438 2.32061C4.62188 2.61769 4.02813 3.01853 3.52313 3.52311C3.01854 4.02853 2.61792 4.62248 2.32125 5.30498C2.02458 5.98748 1.87583 6.71915 1.875 7.49998H0.625ZM7.5 11.25C7.71875 11.25 7.90375 11.1744 8.055 11.0231C8.20625 10.8719 8.28167 10.6871 8.28125 10.4687C8.28125 10.25 8.20563 10.0625 8.05438 9.90623C7.90313 9.74998 7.71833 9.67186 7.5 9.67186C7.28125 9.67186 7.09625 9.74749 6.945 9.89874C6.79375 10.05 6.71833 10.2348 6.71875 10.4531C6.71875 10.6719 6.79437 10.8594 6.94562 11.0156C7.09687 11.1719 7.28167 11.25 7.5 11.25ZM6.9375 8.87498H8.07812C8.07812 8.49998 8.1225 8.21874 8.21125 8.03123C8.3 7.84373 8.47958 7.61457 8.75 7.34373C9.11458 6.97915 9.35688 6.68478 9.47688 6.46061C9.59688 6.23644 9.65667 5.96832 9.65625 5.65623C9.65625 5.0729 9.44792 4.60936 9.03125 4.26561C8.61458 3.92186 8.10417 3.74998 7.5 3.74998C6.97917 3.74998 6.53125 3.8854 6.15625 4.15623C5.78125 4.42707 5.51042 4.81248 5.34375 5.31248L6.375 5.74998C6.44792 5.47915 6.58604 5.25519 6.78937 5.07811C6.99271 4.90103 7.22958 4.81248 7.5 4.81248C7.78125 4.81248 8.01813 4.89332 8.21063 5.05499C8.40313 5.21665 8.49958 5.43269 8.5 5.70311C8.5 5.88019 8.45833 6.05728 8.375 6.23436C8.29167 6.41144 8.11458 6.61978 7.84375 6.85936C7.5 7.16144 7.26312 7.45582 7.13313 7.74248C7.00313 8.02915 6.93792 8.40665 6.9375 8.87498Z" fill="#222222"/>
</g>
<defs>
<clipPath id="clip0_427_15733">
<rect width="15" height="15" fill="white"/>
</clipPath>
</defs>
</svg>
