<svg width="30" height="30" viewBox="0 0 30 30" fill="none" xmlns="http://www.w3.org/2000/svg">
<g id="octicon:gear-24">
<path id="Vector" d="M20 15C20 16.3261 19.4732 17.5979 18.5355 18.5355C17.5979 19.4732 16.3261 20 15 20C13.6739 20 12.4021 19.4732 11.4645 18.5355C10.5268 17.5979 10 16.3261 10 15C10 13.6739 10.5268 12.4021 11.4645 11.4645C12.4021 10.5268 13.6739 10 15 10C16.3261 10 17.5979 10.5268 18.5355 11.4645C19.4732 12.4021 20 13.6739 20 15ZM18.125 15C18.125 14.1712 17.7958 13.3763 17.2097 12.7903C16.6237 12.2042 15.8288 11.875 15 11.875C14.1712 11.875 13.3763 12.2042 12.7903 12.7903C12.2042 13.3763 11.875 14.1712 11.875 15C11.875 15.8288 12.2042 16.6237 12.7903 17.2097C13.3763 17.7958 14.1712 18.125 15 18.125C15.8288 18.125 16.6237 17.7958 17.2097 17.2097C17.7958 16.6237 18.125 15.8288 18.125 15Z" fill="#8897AE"/>
<path id="Vector_2" d="M15.0001 1.25C15.3326 1.25 15.6651 1.26125 15.9964 1.285C16.9501 1.35375 17.6776 2.05625 17.8864 2.915L18.3264 4.7275C18.3501 4.825 18.4389 4.94125 18.6076 5.00375C18.9164 5.115 19.2201 5.24125 19.5176 5.38125C19.6801 5.4575 19.8251 5.43625 19.9114 5.38375L21.5051 4.41375C22.2589 3.95375 23.2689 3.9725 23.9926 4.5975C24.4951 5.03375 24.9676 5.505 25.4026 6.00875C26.0289 6.73125 26.0464 7.74125 25.5864 8.49625L24.6164 10.0887C24.5639 10.175 24.5439 10.32 24.6189 10.4825C24.7589 10.78 24.8851 11.0838 24.9976 11.3925C25.0576 11.5613 25.1751 11.6487 25.2726 11.6737L27.0851 12.1138C27.9439 12.3225 28.6464 13.05 28.7139 14.0037C28.7614 14.6675 28.7614 15.3325 28.7139 15.9963C28.6464 16.95 27.9439 17.6775 27.0851 17.8862L25.2726 18.3263C25.1751 18.35 25.0589 18.4387 24.9964 18.6075C24.8851 18.9175 24.7589 19.2213 24.6189 19.5175C24.5426 19.68 24.5639 19.825 24.6164 19.9112L25.5864 21.505C26.0464 22.2588 26.0276 23.2688 25.4026 23.9925C24.9664 24.495 24.4951 24.9675 23.9914 25.4025C23.2689 26.0288 22.2589 26.0462 21.5039 25.5863L19.9114 24.6163C19.8251 24.5638 19.6801 24.5437 19.5189 24.6187C19.2211 24.7589 18.917 24.8853 18.6076 24.9975C18.4389 25.0575 18.3514 25.175 18.3264 25.2725L17.8864 27.085C17.6776 27.9437 16.9501 28.6463 15.9964 28.7138C15.3326 28.7613 14.6676 28.7613 14.0039 28.7138C13.0501 28.6463 12.3226 27.9437 12.1139 27.085L11.6739 25.2725C11.6501 25.175 11.5614 25.0588 11.3926 24.9963C11.0834 24.8852 10.7797 24.7592 10.4826 24.6187C10.3201 24.5425 10.1751 24.5638 10.0889 24.6163L8.49514 25.5863C7.74139 26.0462 6.73139 26.0275 6.00764 25.4025C5.50514 24.9663 5.03264 24.495 4.59764 23.9913C3.97139 23.2688 3.95389 22.2587 4.41389 21.5037L5.38389 19.9112C5.43639 19.825 5.45639 19.68 5.38139 19.5187C5.24126 19.221 5.11488 18.9169 5.00264 18.6075C4.94264 18.4387 4.82514 18.3512 4.72764 18.3263L2.91514 17.8862C2.05639 17.6775 1.35389 16.95 1.28514 15.9963C1.23764 15.3329 1.23764 14.6671 1.28514 14.0037C1.35389 13.05 2.05639 12.3225 2.91514 12.1138L4.72764 11.6737C4.82514 11.65 4.94139 11.5613 5.00389 11.3925C5.11514 11.0825 5.24139 10.7787 5.38139 10.4825C5.45764 10.32 5.43639 10.175 5.38389 10.0887L4.41389 8.495C3.95389 7.74125 3.97264 6.73125 4.59764 6.0075C5.03389 5.505 5.50514 5.0325 6.00889 4.5975C6.73139 3.97125 7.74139 3.95375 8.49639 4.41375L10.0889 5.38375C10.1751 5.43625 10.3201 5.45625 10.4826 5.38125C10.7801 5.24125 11.0839 5.115 11.3926 5.0025C11.5614 4.9425 11.6489 4.825 11.6739 4.7275L12.1139 2.915C12.3226 2.05625 13.0501 1.35375 14.0039 1.285C14.3326 1.2625 14.6651 1.25 15.0001 1.25ZM14.1376 3.15625C14.0689 3.16125 13.9689 3.21875 13.9364 3.3575L13.4951 5.17C13.4017 5.53632 13.219 5.87381 12.9634 6.15234C12.7077 6.43087 12.3871 6.64178 12.0301 6.76625C11.7755 6.85858 11.5253 6.96244 11.2801 7.0775C10.9393 7.24235 10.563 7.32018 10.1847 7.30404C9.80651 7.2879 9.43816 7.17829 9.11264 6.985L7.52014 6.015C7.39764 5.94 7.28764 5.97 7.23514 6.015C6.80023 6.39241 6.39255 6.80009 6.01514 7.235C5.97014 7.2875 5.94014 7.39875 6.01514 7.52L6.98514 9.1125C7.37764 9.77375 7.41264 10.5875 7.07764 11.28C6.96257 11.5252 6.85872 11.7754 6.76639 12.03C6.64208 12.3874 6.43108 12.7084 6.1523 12.9643C5.87351 13.2202 5.53562 13.403 5.16889 13.4963L3.35639 13.935C3.21889 13.9688 3.16139 14.0688 3.15639 14.1375C3.11514 14.7118 3.11514 15.2882 3.15639 15.8625C3.16139 15.9312 3.21889 16.0312 3.35764 16.0637L5.17014 16.505C5.53646 16.5985 5.87395 16.7811 6.15248 17.0368C6.43101 17.2924 6.64192 17.613 6.76639 17.97C6.85889 18.225 6.96264 18.475 7.07764 18.72C7.41264 19.4112 7.37764 20.225 6.98514 20.8862L6.01514 22.48C5.94014 22.6025 5.97014 22.7125 6.01514 22.765C6.39139 23.2 6.80014 23.6087 7.23514 23.985C7.28764 24.03 7.39889 24.06 7.52014 23.985L9.11264 23.015C9.43794 22.8212 9.80626 22.7112 10.1846 22.6948C10.5629 22.6785 10.9393 22.7563 11.2801 22.9212C11.5251 23.0375 11.7751 23.1413 12.0301 23.2337C12.3876 23.3581 12.7086 23.5691 12.9645 23.8478C13.2203 24.1266 13.4031 24.4645 13.4964 24.8312L13.9351 26.6438C13.9689 26.7812 14.0689 26.8388 14.1376 26.8438C14.7119 26.885 15.2884 26.885 15.8626 26.8438C15.9314 26.8388 16.0314 26.7812 16.0639 26.6425L16.5051 24.83C16.5986 24.4635 16.7813 24.1259 17.0369 23.8472C17.2925 23.5684 17.6131 23.3573 17.9701 23.2325C18.2249 23.1411 18.4752 23.0377 18.7201 22.9225C19.0607 22.7577 19.4369 22.6798 19.8149 22.696C20.193 22.7121 20.5611 22.8217 20.8864 23.015L22.4801 23.985C22.6026 24.06 22.7126 24.03 22.7651 23.985C23.2001 23.6087 23.6089 23.2 23.9851 22.765C24.0301 22.7125 24.0601 22.6012 23.9851 22.48L23.0151 20.8862C22.822 20.5609 22.7123 20.1929 22.696 19.8149C22.6796 19.4369 22.7571 19.0608 22.9214 18.72C23.0376 18.475 23.1414 18.225 23.2339 17.97C23.3582 17.6126 23.5692 17.2916 23.848 17.0357C24.1268 16.7798 24.4647 16.597 24.8314 16.5037L26.6439 16.065C26.7814 16.0312 26.8389 15.9312 26.8439 15.8625C26.8851 15.2882 26.8851 14.7118 26.8439 14.1375C26.8389 14.0688 26.7814 13.9688 26.6426 13.9363L24.8301 13.495C24.0476 13.305 23.4801 12.7137 23.2326 12.03C23.1417 11.775 23.0383 11.5247 22.9226 11.28C22.7578 10.9392 22.68 10.5628 22.6961 10.1846C22.7122 9.80637 22.8219 9.43802 23.0151 9.1125L23.9851 7.52C24.0601 7.3975 24.0301 7.2875 23.9851 7.235C23.6077 6.80009 23.2 6.39241 22.7651 6.015C22.7126 5.97 22.6014 5.94 22.4801 6.015L20.8864 6.985C20.5611 7.17828 20.193 7.2879 19.8149 7.30404C19.4369 7.32019 19.0607 7.24235 18.7201 7.0775C18.4752 6.962 18.2249 6.85813 17.9701 6.76625C17.6129 6.64155 17.2921 6.43043 17.0363 6.1517C16.7805 5.87298 16.5976 5.5353 16.5039 5.16875L16.0651 3.35625C16.0314 3.21875 15.9314 3.16125 15.8626 3.15625C15.2884 3.115 14.7119 3.115 14.1376 3.15625Z" fill="#8897AE"/>
</g>
</svg>
