<svg width="36" height="36" viewBox="0 0 36 36" fill="none" xmlns="http://www.w3.org/2000/svg">
<g id="iconamoon:discount-light">
<g id="Group">
<path id="Vector" d="M15.7652 5.4975C16.0466 5.18325 16.3911 4.93186 16.7762 4.75976C17.1613 4.58765 17.5784 4.4987 18.0002 4.4987C18.422 4.4987 18.8391 4.58765 19.2242 4.75976C19.6093 4.93186 19.9538 5.18325 20.2352 5.4975L21.2852 6.6705C21.5853 7.00575 21.9569 7.2692 22.3726 7.44134C22.7883 7.61349 23.2374 7.68993 23.6867 7.665L25.2617 7.578C25.683 7.55478 26.1044 7.62068 26.4985 7.77139C26.8925 7.9221 27.2504 8.15423 27.5486 8.45264C27.8469 8.75104 28.0789 9.109 28.2294 9.50314C28.3799 9.89729 28.4456 10.3187 28.4222 10.74L28.3352 12.3135C28.3105 12.7625 28.387 13.2113 28.5592 13.6267C28.7313 14.0422 28.9947 14.4136 29.3297 14.7135L30.5027 15.7635C30.8172 16.0449 31.0688 16.3895 31.241 16.7747C31.4133 17.16 31.5023 17.5772 31.5023 17.9993C31.5023 18.4213 31.4133 18.8385 31.241 19.2238C31.0688 19.609 30.8172 19.9536 30.5027 20.235L29.3297 21.285C28.9944 21.5851 28.731 21.9568 28.5588 22.3725C28.3867 22.7882 28.3103 23.2373 28.3352 23.6865L28.4222 25.2615C28.4454 25.6828 28.3795 26.1042 28.2288 26.4983C28.0781 26.8923 27.846 27.2502 27.5476 27.5485C27.2492 27.8467 26.8912 28.0787 26.497 28.2292C26.1029 28.3797 25.6814 28.4454 25.2602 28.422L23.6867 28.335C23.2377 28.3103 22.7889 28.3868 22.3735 28.559C21.958 28.7311 21.5866 28.9945 21.2867 29.3295L20.2367 30.5025C19.9553 30.817 19.6107 31.0686 19.2255 31.2409C18.8402 31.4131 18.423 31.5021 18.0009 31.5021C17.5789 31.5021 17.1617 31.4131 16.7764 31.2409C16.3912 31.0686 16.0466 30.817 15.7652 30.5025L14.7152 29.3295C14.4151 28.9943 14.0434 28.7308 13.6277 28.5587C13.212 28.3865 12.7629 28.3101 12.3137 28.335L10.7387 28.422C10.3174 28.4452 9.896 28.3793 9.50192 28.2286C9.10785 28.0779 8.75 27.8458 8.45174 27.5474C8.15348 27.249 7.92151 26.891 7.77099 26.4969C7.62046 26.1027 7.55477 25.6813 7.57819 25.26L7.66519 23.6865C7.68989 23.2375 7.61334 22.7887 7.4412 22.3733C7.26906 21.9578 7.00573 21.5864 6.67069 21.2865L5.49769 20.2365C5.18319 19.9551 4.93159 19.6105 4.75934 19.2253C4.58708 18.84 4.49805 18.4228 4.49805 18.0008C4.49805 17.5787 4.58708 17.1615 4.75934 16.7762C4.93159 16.391 5.18319 16.0464 5.49769 15.765L6.67069 14.715C7.00594 14.4149 7.26939 14.0433 7.44153 13.6276C7.61368 13.2118 7.69012 12.7627 7.66519 12.3135L7.57819 10.7385C7.55519 10.3174 7.62125 9.89609 7.77205 9.5022C7.92286 9.10831 8.15503 8.75065 8.45341 8.45255C8.75179 8.15446 9.10968 7.92263 9.50371 7.77219C9.89774 7.62176 10.3191 7.5561 10.7402 7.5795L12.3137 7.6665C12.7627 7.6912 13.2115 7.61465 13.6269 7.44251C14.0423 7.27037 14.4138 7.00704 14.7137 6.672L15.7637 5.499L15.7652 5.4975Z" stroke="#1166C8" stroke-width="2.25"/>
<path id="Vector_2" d="M14.25 14.25H14.265V14.265H14.25V14.25ZM21.75 21.75H21.765V21.765H21.75V21.75Z" stroke="#1166C8" stroke-width="3.375" stroke-linejoin="round"/>
<path id="Vector_3" d="M22.5 13.5L13.5 22.5" stroke="#1166C8" stroke-width="2.25" stroke-linecap="round" stroke-linejoin="round"/>
</g>
</g>
</svg>
