<svg width="36" height="36" viewBox="0 0 36 36" fill="none" xmlns="http://www.w3.org/2000/svg">
<g id="solar:shop-outline">
<path id="Vector" fill-rule="evenodd" clip-rule="evenodd" d="M10.9601 1.875C9.75861 1.875 8.93511 1.875 8.20011 2.0745C7.43941 2.28327 6.73113 2.64971 6.12126 3.15001C5.51139 3.65031 5.01356 4.27329 4.66011 4.9785C4.31961 5.6565 4.15911 6.465 3.92361 7.644L2.99361 12.291C2.82891 13.1056 2.84482 13.9465 3.04023 14.7543C3.23564 15.5621 3.60579 16.3172 4.12461 16.9665V21.084C4.12461 23.841 4.12461 26.025 4.35411 27.7335C4.59111 29.4915 5.08911 30.915 6.21111 32.0385C7.33311 33.1605 8.75661 33.6585 10.5161 33.8955C12.2246 34.125 14.4086 34.125 17.1641 34.125H18.8336C21.5906 34.125 23.7746 34.125 25.4831 33.8955C27.2411 33.6585 28.6646 33.1605 29.7881 32.0385C30.9101 30.915 31.4081 29.4915 31.6451 27.7335C31.8746 26.0235 31.8746 23.841 31.8746 21.084V16.968C32.3934 16.3184 32.7634 15.563 32.9585 14.7549C33.1537 13.9468 33.1693 13.1057 33.0041 12.291L32.0741 7.644C31.8401 6.465 31.6781 5.6565 31.3391 4.9785C30.9855 4.27314 30.4874 3.65006 29.8773 3.14975C29.2672 2.64943 28.5586 2.28309 27.7976 2.0745C27.0641 1.875 26.2406 1.875 25.0376 1.875H10.9601ZM27.4016 19.125C28.1651 19.1264 28.921 18.9744 29.6246 18.678V21C29.6246 23.8605 29.6216 25.893 29.4146 27.435C29.2121 28.9425 28.8311 29.8125 28.1966 30.447C27.5621 31.0815 26.6921 31.4625 25.1816 31.665C24.4159 31.76 23.646 31.8171 22.8746 31.836V27.702C22.8746 27.042 22.8746 26.472 22.8326 26.007C22.7876 25.512 22.6886 25.023 22.4216 24.5625C22.1257 24.0493 21.7 23.623 21.1871 23.3265C20.7266 23.061 20.2376 22.962 19.7426 22.917C19.2776 22.875 18.7076 22.875 18.0476 22.875H17.9501C17.2901 22.875 16.7216 22.875 16.2551 22.917C15.7601 22.962 15.2726 23.061 14.8121 23.3265C14.2987 23.6228 13.8724 24.0491 13.5761 24.5625C13.3106 25.023 13.2116 25.512 13.1666 26.0055C13.1246 26.4735 13.1246 27.042 13.1246 27.7005V31.836C12.3523 31.8172 11.5813 31.7601 10.8146 31.665C9.30711 31.4625 8.43711 31.0815 7.80261 30.447C7.16661 29.8125 6.78711 28.9425 6.58461 27.4335C6.37611 25.893 6.37461 23.8605 6.37461 21V18.678C7.57327 19.1844 8.90895 19.2663 10.1605 18.91C11.412 18.5538 12.5043 17.7808 13.2566 16.719C13.8015 17.4656 14.5153 18.0727 15.3396 18.4908C16.1638 18.909 17.0753 19.1263 17.9996 19.125C18.9239 19.1263 19.8354 18.909 20.6597 18.4908C21.484 18.0727 22.1977 17.4656 22.7426 16.719C23.2705 17.463 23.969 18.0698 24.7796 18.4884C25.5902 18.907 26.4893 19.1253 27.4016 19.125ZM15.3746 31.872C15.9566 31.875 16.5806 31.875 17.2496 31.875H18.7496C19.4186 31.875 20.0411 31.875 20.6246 31.872V27.75C20.6246 27.0285 20.6231 26.562 20.5916 26.2095C20.5616 25.872 20.5091 25.749 20.4731 25.6875C20.3745 25.5169 20.2327 25.3751 20.0621 25.2765C20.0006 25.2405 19.8776 25.1895 19.5401 25.158C19.0273 25.1264 18.5133 25.1154 17.9996 25.125C17.2781 25.125 16.8116 25.125 16.4591 25.158C16.1201 25.188 15.9986 25.2405 15.9371 25.2765C15.7659 25.3749 15.6237 25.5167 15.5246 25.6875C15.4901 25.7475 15.4376 25.872 15.4076 26.2095C15.3761 26.562 15.3746 27.0285 15.3746 27.75V31.872ZM13.0046 4.125H11.1266C9.69561 4.125 9.19911 4.1355 8.79711 4.245C8.34077 4.37016 7.91586 4.58989 7.54994 4.88991C7.18402 5.18993 6.88528 5.56354 6.67311 5.9865C6.48561 6.36 6.37911 6.843 6.09861 8.247L5.20161 12.732C5.10601 13.1935 5.10555 13.6696 5.20026 14.1312C5.29496 14.5929 5.48285 15.0304 5.75241 15.4169C6.02198 15.8035 6.36757 16.131 6.76804 16.3794C7.16851 16.6278 7.61545 16.7919 8.08152 16.8617C8.54759 16.9315 9.023 16.9055 9.47867 16.7852C9.93433 16.665 10.3607 16.453 10.7316 16.1624C11.1026 15.8717 11.4104 15.5085 11.6361 15.0948C11.8619 14.6811 12.0009 14.2257 12.0446 13.7565L12.1481 12.7275L12.1541 12.6645L13.0076 4.125H13.0046ZM14.3861 12.9375L15.2681 4.125H20.7311L21.6071 12.888C21.6562 13.3894 21.6003 13.8955 21.4428 14.3741C21.2854 14.8527 21.03 15.2932 20.6928 15.6676C20.3556 16.0419 19.9442 16.3419 19.4846 16.5484C19.0251 16.7548 18.5275 16.8632 18.0237 16.8667C17.5199 16.8701 17.0209 16.7686 16.5586 16.5684C16.0963 16.3683 15.6807 16.074 15.3384 15.7043C14.9962 15.3346 14.7347 14.8976 14.5708 14.4212C14.4068 13.9449 14.3439 13.4395 14.3861 12.9375ZM27.2021 4.245C26.8001 4.1355 26.3036 4.125 24.8726 4.125H22.9916L23.9561 13.755C24.0013 14.2229 24.1412 14.6767 24.3674 15.0887C24.5935 15.5008 24.9012 15.8625 25.2717 16.1519C25.6421 16.4412 26.0676 16.6521 26.5222 16.7717C26.9767 16.8913 27.4509 16.9172 27.9158 16.8477C28.3807 16.7782 28.8265 16.6147 29.2262 16.3674C29.6259 16.12 29.9711 15.7939 30.2407 15.4088C30.5103 15.0238 30.6988 14.5879 30.7945 14.1277C30.8902 13.6675 30.8913 13.1926 30.7976 12.732L29.9021 8.247C29.6201 6.843 29.5136 6.36 29.3276 5.9865C29.1153 5.56339 28.8163 5.18967 28.4501 4.88964C28.0839 4.58961 27.6587 4.36998 27.2021 4.245Z" fill="#1166C8"/>
</g>
</svg>
