<svg width="36" height="36" viewBox="0 0 36 36" fill="none" xmlns="http://www.w3.org/2000/svg">
<g id="ph:shrimp">
<path id="Vector" d="M19.125 16.3125C19.125 15.9787 19.224 15.6525 19.4094 15.375C19.5948 15.0975 19.8584 14.8812 20.1667 14.7535C20.4751 14.6257 20.8144 14.5923 21.1417 14.6574C21.4691 14.7225 21.7697 14.8833 22.0057 15.1193C22.2417 15.3553 22.4025 15.6559 22.4676 15.9833C22.5327 16.3106 22.4993 16.6499 22.3715 16.9583C22.2438 17.2666 22.0275 17.5302 21.75 17.7156C21.4725 17.901 21.1463 18 20.8125 18C20.3649 18 19.9357 17.8222 19.6193 17.5057C19.3028 17.1893 19.125 16.7601 19.125 16.3125ZM31.4719 12.0066C31.2771 14.8513 30.0106 17.5163 27.9279 19.4638C25.8452 21.4113 23.1014 22.4963 20.25 22.5H15.75C15.3024 22.5 14.8732 22.6778 14.5568 22.9943C14.2403 23.3107 14.0625 23.7399 14.0625 24.1875C14.0625 24.6351 14.2403 25.0643 14.5568 25.3807C14.8732 25.6972 15.3024 25.875 15.75 25.875H23.625C23.9234 25.875 24.2095 25.9935 24.4205 26.2045C24.6315 26.4155 24.75 26.7016 24.75 27C24.75 27.2984 24.6315 27.5845 24.4205 27.7955C24.2095 28.0065 23.9234 28.125 23.625 28.125H16.875V30.375H21.375C21.6734 30.375 21.9595 30.4935 22.1705 30.7045C22.3815 30.9155 22.5 31.2016 22.5 31.5C22.5 31.7984 22.3815 32.0845 22.1705 32.2955C21.9595 32.5065 21.6734 32.625 21.375 32.625H13.5C10.5163 32.625 7.65483 31.4397 5.54505 29.33C3.43526 27.2202 2.25 24.3587 2.25 21.375C2.25 18.3913 3.43526 15.5298 5.54505 13.42C7.65483 11.3103 10.5163 10.125 13.5 10.125H29.8125C30.2601 10.125 30.6893 9.94721 31.0057 9.63074C31.3222 9.31428 31.5 8.88505 31.5 8.4375C31.5 7.98995 31.3222 7.56072 31.0057 7.24426C30.6893 6.92779 30.2601 6.75 29.8125 6.75H18C17.1049 6.75 16.2464 6.39442 15.6135 5.76149C14.9806 5.12855 14.625 4.27011 14.625 3.375C14.625 3.07663 14.7435 2.79048 14.9545 2.5795C15.1655 2.36853 15.4516 2.25 15.75 2.25C16.0484 2.25 16.3345 2.36853 16.5455 2.5795C16.7565 2.79048 16.875 3.07663 16.875 3.375C16.875 3.67337 16.9935 3.95952 17.2045 4.1705C17.4155 4.38147 17.7016 4.5 18 4.5H29.8125C30.7085 4.50083 31.5774 4.80723 32.2758 5.3686C32.9741 5.92997 33.4601 6.71272 33.6535 7.58761C33.8469 8.46249 33.7361 9.37717 33.3395 10.1806C32.9428 10.984 32.284 11.6281 31.4719 12.0066ZM7.14375 27.7439L11.8153 24.4069V24.1875C11.8145 23.8321 11.8618 23.4783 11.9559 23.1356L4.64062 19.8098C4.38622 21.2366 4.48157 22.7038 4.91851 24.0856C5.35545 25.4675 6.12094 26.7228 7.14937 27.7439H7.14375ZM12.6281 26.5908L9.01688 29.1741C10.3795 29.9619 11.926 30.3762 13.5 30.375H14.625V27.9605C13.8346 27.7228 13.1384 27.2439 12.6337 26.5908H12.6281ZM14.625 20.4145V12.375H13.5C11.7738 12.3769 10.0845 12.8747 8.6331 13.8091C7.18167 14.7435 6.0292 16.0751 5.31281 17.6456L13.1695 21.2161C13.5921 20.8484 14.0883 20.5751 14.625 20.4145ZM29.1797 12.375H16.875V20.25H20.25C22.4414 20.2474 24.5568 19.4464 26.2003 17.9969C27.8439 16.5475 28.9031 14.5489 29.1797 12.375Z" fill="#1166C8"/>
</g>
</svg>
