<svg width="36" height="36" viewBox="0 0 36 36" fill="none" xmlns="http://www.w3.org/2000/svg">
<g id="solar:wallet-money-linear">
<g id="Group">
<path id="Vector" d="M9 15H15" stroke="#1166C8" stroke-width="2.25" stroke-linecap="round" stroke-linejoin="round"/>
<path id="Vector_2" d="M31.2495 16.5H27.3465C24.669 16.5 22.5 18.5145 22.5 21C22.5 23.4855 24.6705 25.5 27.345 25.5H31.2495C31.3755 25.5 31.437 25.5 31.4895 25.497C32.2995 25.4475 32.9445 24.849 32.997 24.0975C33 24.0495 33 23.991 33 23.8755V18.1245C33 18.009 33 17.9505 32.997 17.9025C32.943 17.151 32.2995 16.5525 31.4895 16.503C31.437 16.5 31.3755 16.5 31.2495 16.5Z" stroke="#1166C8" stroke-width="2.25"/>
<path id="Vector_3" d="M31.4475 16.5C31.3305 13.692 30.9555 11.97 29.742 10.758C27.9855 9 25.1565 9 19.5 9H15C9.3435 9 6.5145 9 4.758 10.758C3 12.5145 3 15.3435 3 21C3 26.6565 3 29.4855 4.758 31.242C6.5145 33 9.3435 33 15 33H19.5C25.1565 33 27.9855 33 29.742 31.242C30.9555 30.03 31.332 28.308 31.4475 25.5" stroke="#1166C8" stroke-width="2.25"/>
<path id="Vector_4" d="M9 8.99999L14.6025 5.28449C15.3904 4.772 16.3101 4.49921 17.25 4.49921C18.1899 4.49921 19.1096 4.772 19.8975 5.28449L25.5 8.99999" stroke="#1166C8" stroke-width="2.25" stroke-linecap="round"/>
<path id="Vector_5" d="M26.9863 21H27.0013" stroke="#1166C8" stroke-width="3" stroke-linecap="round" stroke-linejoin="round"/>
</g>
</g>
</svg>
