<svg width="100" height="100" viewBox="0 0 100 100" fill="none" xmlns="http://www.w3.org/2000/svg">
<g id="bx:water">
<path id="Vector" d="M24.9835 37.5C30.871 37.5 33.9835 34.3875 36.2543 32.1125C38.296 30.0709 39.3002 29.1667 41.6377 29.1667C43.9752 29.1667 44.9793 30.0709 47.021 32.1125C49.2918 34.3875 52.4043 37.5 58.296 37.5C64.1918 37.5 67.3085 34.3875 69.5877 32.1125C71.6335 30.0709 72.6377 29.1667 74.9835 29.1667C77.3293 29.1667 78.3335 30.0709 80.3793 32.1125C82.6543 34.3875 85.771 37.5 91.6668 37.5V29.1667C89.321 29.1667 88.3168 28.2625 86.271 26.2209C83.996 23.9459 80.8793 20.8334 74.9835 20.8334C69.0877 20.8334 65.9752 23.9459 63.696 26.2167C61.6502 28.2625 60.6502 29.1667 58.296 29.1667C55.9543 29.1667 54.9543 28.2625 52.9127 26.2209C50.6418 23.9459 47.5293 20.8334 41.6377 20.8334C35.746 20.8334 32.6335 23.9459 30.3627 26.2209C28.321 28.2625 27.321 29.1667 24.9835 29.1667C22.646 29.1667 21.646 28.2625 19.6043 26.2209C17.3335 23.9459 14.221 20.8334 8.3335 20.8334V29.1667C10.671 29.1667 11.671 30.0709 13.7127 32.1125C15.9835 34.3875 19.096 37.5 24.9835 37.5ZM24.9835 58.3334C30.871 58.3334 33.9835 55.2209 36.2543 52.9459C38.296 50.9042 39.3002 50 41.6377 50C43.9752 50 44.9793 50.9042 47.021 52.9459C49.2918 55.2209 52.4043 58.3334 58.296 58.3334C64.1918 58.3334 67.3085 55.2209 69.5877 52.9459C71.6335 50.9042 72.6377 50 74.9835 50C77.3293 50 78.3335 50.9042 80.3793 52.9459C82.6543 55.2209 85.771 58.3334 91.6668 58.3334V50C89.321 50 88.3168 49.0959 86.271 47.0542C83.996 44.7792 80.8793 41.6667 74.9835 41.6667C69.0877 41.6667 65.9752 44.7792 63.696 47.05C61.6502 49.0959 60.6502 50 58.296 50C55.9543 50 54.9543 49.0959 52.9127 47.0542C50.6418 44.7792 47.5293 41.6667 41.6377 41.6667C35.746 41.6667 32.6335 44.7792 30.3627 47.0542C28.321 49.0959 27.321 50 24.9835 50C22.646 50 21.646 49.0959 19.6043 47.0542C17.3335 44.7792 14.221 41.6667 8.3335 41.6667V50C10.671 50 11.671 50.9042 13.7127 52.9459C15.9835 55.2209 19.096 58.3334 24.9835 58.3334ZM24.9835 79.1667C30.871 79.1667 33.9835 76.0542 36.2543 73.7792C38.296 71.7375 39.3002 70.8334 41.6377 70.8334C43.9752 70.8334 44.9793 71.7375 47.021 73.7792C49.2918 76.0542 52.4043 79.1667 58.296 79.1667C64.1918 79.1667 67.3085 76.0542 69.5877 73.7792C71.6335 71.7375 72.6377 70.8334 74.9835 70.8334C77.3293 70.8334 78.3335 71.7375 80.3793 73.7792C82.6543 76.0542 85.771 79.1667 91.6668 79.1667V70.8334C89.321 70.8334 88.3168 69.9292 86.271 67.8875C83.996 65.6125 80.8793 62.5 74.9835 62.5C69.0877 62.5 65.9752 65.6125 63.696 67.8834C61.6502 69.9292 60.6502 70.8334 58.296 70.8334C55.9543 70.8334 54.9543 69.9292 52.9127 67.8875C50.6418 65.6125 47.5293 62.5 41.6377 62.5C35.746 62.5 32.6335 65.6125 30.3627 67.8875C28.321 69.9292 27.321 70.8334 24.9835 70.8334C22.646 70.8334 21.646 69.9292 19.6043 67.8875C17.3335 65.6125 14.221 62.5 8.3335 62.5V70.8334C10.671 70.8334 11.671 71.7375 13.7127 73.7792C15.9835 76.0542 19.096 79.1667 24.9835 79.1667Z" fill="#F0F3F9"/>
</g>
</svg>
