<svg width="100" height="100" viewBox="0 0 100 100" fill="none" xmlns="http://www.w3.org/2000/svg">
<g id="bx:water">
<path id="Vector" d="M24.9835 37.5C30.871 37.5 33.9835 34.3875 36.2543 32.1125C38.296 30.0708 39.3002 29.1666 41.6377 29.1666C43.9752 29.1666 44.9793 30.0708 47.021 32.1125C49.2918 34.3875 52.4043 37.5 58.296 37.5C64.1918 37.5 67.3085 34.3875 69.5877 32.1125C71.6335 30.0708 72.6377 29.1666 74.9835 29.1666C77.3293 29.1666 78.3335 30.0708 80.3793 32.1125C82.6543 34.3875 85.771 37.5 91.6668 37.5V29.1666C89.321 29.1666 88.3168 28.2625 86.271 26.2208C83.996 23.9458 80.8793 20.8333 74.9835 20.8333C69.0877 20.8333 65.9752 23.9458 63.696 26.2166C61.6502 28.2625 60.6502 29.1666 58.296 29.1666C55.9543 29.1666 54.9543 28.2625 52.9127 26.2208C50.6418 23.9458 47.5293 20.8333 41.6377 20.8333C35.746 20.8333 32.6335 23.9458 30.3627 26.2208C28.321 28.2625 27.321 29.1666 24.9835 29.1666C22.646 29.1666 21.646 28.2625 19.6043 26.2208C17.3335 23.9458 14.221 20.8333 8.3335 20.8333V29.1666C10.671 29.1666 11.671 30.0708 13.7127 32.1125C15.9835 34.3875 19.096 37.5 24.9835 37.5ZM24.9835 58.3333C30.871 58.3333 33.9835 55.2208 36.2543 52.9458C38.296 50.9041 39.3002 50 41.6377 50C43.9752 50 44.9793 50.9041 47.021 52.9458C49.2918 55.2208 52.4043 58.3333 58.296 58.3333C64.1918 58.3333 67.3085 55.2208 69.5877 52.9458C71.6335 50.9041 72.6377 50 74.9835 50C77.3293 50 78.3335 50.9041 80.3793 52.9458C82.6543 55.2208 85.771 58.3333 91.6668 58.3333V50C89.321 50 88.3168 49.0958 86.271 47.0541C83.996 44.7791 80.8793 41.6666 74.9835 41.6666C69.0877 41.6666 65.9752 44.7791 63.696 47.05C61.6502 49.0958 60.6502 50 58.296 50C55.9543 50 54.9543 49.0958 52.9127 47.0541C50.6418 44.7791 47.5293 41.6666 41.6377 41.6666C35.746 41.6666 32.6335 44.7791 30.3627 47.0541C28.321 49.0958 27.321 50 24.9835 50C22.646 50 21.646 49.0958 19.6043 47.0541C17.3335 44.7791 14.221 41.6666 8.3335 41.6666V50C10.671 50 11.671 50.9041 13.7127 52.9458C15.9835 55.2208 19.096 58.3333 24.9835 58.3333ZM24.9835 79.1666C30.871 79.1666 33.9835 76.0541 36.2543 73.7791C38.296 71.7375 39.3002 70.8333 41.6377 70.8333C43.9752 70.8333 44.9793 71.7375 47.021 73.7791C49.2918 76.0541 52.4043 79.1666 58.296 79.1666C64.1918 79.1666 67.3085 76.0541 69.5877 73.7791C71.6335 71.7375 72.6377 70.8333 74.9835 70.8333C77.3293 70.8333 78.3335 71.7375 80.3793 73.7791C82.6543 76.0541 85.771 79.1666 91.6668 79.1666V70.8333C89.321 70.8333 88.3168 69.9291 86.271 67.8875C83.996 65.6125 80.8793 62.5 74.9835 62.5C69.0877 62.5 65.9752 65.6125 63.696 67.8833C61.6502 69.9291 60.6502 70.8333 58.296 70.8333C55.9543 70.8333 54.9543 69.9291 52.9127 67.8875C50.6418 65.6125 47.5293 62.5 41.6377 62.5C35.746 62.5 32.6335 65.6125 30.3627 67.8875C28.321 69.9291 27.321 70.8333 24.9835 70.8333C22.646 70.8333 21.646 69.9291 19.6043 67.8875C17.3335 65.6125 14.221 62.5 8.3335 62.5V70.8333C10.671 70.8333 11.671 71.7375 13.7127 73.7791C15.9835 76.0541 19.096 79.1666 24.9835 79.1666Z" fill="#5E718D"/>
</g>
</svg>
